<svg width="403" height="332" viewBox="0 0 403 332" fill="none" xmlns="http://www.w3.org/2000/svg">
<g opacity="0.3">
<ellipse cx="2.39435" cy="3.29243" rx="1.7622" ry="1.87617" fill="#2F3E46"/>
<ellipse cx="2.39435" cy="13.6835" rx="1.7622" ry="1.87617" fill="#2F3E46"/>
<ellipse cx="2.39435" cy="24.0745" rx="1.7622" ry="1.87617" fill="#2F3E46"/>
<ellipse cx="2.39435" cy="34.4656" rx="1.7622" ry="1.87617" fill="#2F3E46"/>
<ellipse cx="2.39435" cy="44.8568" rx="1.7622" ry="1.87617" fill="#2F3E46"/>
<ellipse cx="2.39435" cy="55.2478" rx="1.7622" ry="1.87617" fill="#2F3E46"/>
<ellipse cx="2.39435" cy="65.6389" rx="1.7622" ry="1.87617" fill="#2F3E46"/>
<ellipse cx="2.39435" cy="76.0299" rx="1.7622" ry="1.87617" fill="#2F3E46"/>
<ellipse cx="2.39435" cy="86.421" rx="1.7622" ry="1.87617" fill="#2F3E46"/>
<ellipse cx="2.39435" cy="96.8121" rx="1.7622" ry="1.87617" fill="#2F3E46"/>
<ellipse cx="8.35876" cy="3.29243" rx="1.7622" ry="1.87617" fill="#2F3E46"/>
<ellipse cx="8.35876" cy="13.6835" rx="1.7622" ry="1.87617" fill="#2F3E46"/>
<ellipse cx="8.35876" cy="24.0745" rx="1.7622" ry="1.87617" fill="#2F3E46"/>
<ellipse cx="8.35876" cy="34.4656" rx="1.7622" ry="1.87617" fill="#2F3E46"/>
<ellipse cx="8.35876" cy="44.8568" rx="1.7622" ry="1.87617" fill="#2F3E46"/>
<ellipse cx="8.35876" cy="55.2478" rx="1.7622" ry="1.87617" fill="#2F3E46"/>
<ellipse cx="8.35876" cy="65.6389" rx="1.7622" ry="1.87617" fill="#2F3E46"/>
<ellipse cx="8.35876" cy="76.0299" rx="1.7622" ry="1.87617" fill="#2F3E46"/>
<ellipse cx="8.35876" cy="86.421" rx="1.7622" ry="1.87617" fill="#2F3E46"/>
<ellipse cx="8.35876" cy="96.8121" rx="1.7622" ry="1.87617" fill="#2F3E46"/>
<ellipse cx="14.3232" cy="3.29243" rx="1.7622" ry="1.87617" fill="#2F3E46"/>
<ellipse cx="14.3232" cy="13.6835" rx="1.7622" ry="1.87617" fill="#2F3E46"/>
<ellipse cx="14.3232" cy="24.0745" rx="1.7622" ry="1.87617" fill="#2F3E46"/>
<ellipse cx="14.3232" cy="34.4656" rx="1.7622" ry="1.87617" fill="#2F3E46"/>
<ellipse cx="14.3232" cy="44.8568" rx="1.7622" ry="1.87617" fill="#2F3E46"/>
<ellipse cx="14.3232" cy="55.2478" rx="1.7622" ry="1.87617" fill="#2F3E46"/>
<ellipse cx="14.3232" cy="65.6389" rx="1.7622" ry="1.87617" fill="#2F3E46"/>
<ellipse cx="14.3232" cy="76.0299" rx="1.7622" ry="1.87617" fill="#2F3E46"/>
<ellipse cx="14.3232" cy="86.421" rx="1.7622" ry="1.87617" fill="#2F3E46"/>
<ellipse cx="14.3232" cy="96.8121" rx="1.7622" ry="1.87617" fill="#2F3E46"/>
<ellipse cx="20.2877" cy="3.29243" rx="1.7622" ry="1.87617" fill="#2F3E46"/>
<ellipse cx="20.2877" cy="13.6835" rx="1.7622" ry="1.87617" fill="#2F3E46"/>
<ellipse cx="20.2877" cy="24.0745" rx="1.7622" ry="1.87617" fill="#2F3E46"/>
<ellipse cx="20.2877" cy="34.4656" rx="1.7622" ry="1.87617" fill="#2F3E46"/>
<ellipse cx="20.2877" cy="44.8568" rx="1.7622" ry="1.87617" fill="#2F3E46"/>
<ellipse cx="20.2877" cy="55.2478" rx="1.7622" ry="1.87617" fill="#2F3E46"/>
<ellipse cx="20.2877" cy="65.6389" rx="1.7622" ry="1.87617" fill="#2F3E46"/>
<ellipse cx="20.2877" cy="76.0299" rx="1.7622" ry="1.87617" fill="#2F3E46"/>
<ellipse cx="20.2877" cy="86.421" rx="1.7622" ry="1.87617" fill="#2F3E46"/>
<ellipse cx="20.2877" cy="96.8121" rx="1.7622" ry="1.87617" fill="#2F3E46"/>
<ellipse cx="26.2515" cy="3.29243" rx="1.7622" ry="1.87617" fill="#2F3E46"/>
<ellipse cx="26.2515" cy="13.6835" rx="1.7622" ry="1.87617" fill="#2F3E46"/>
<ellipse cx="26.2515" cy="24.0745" rx="1.7622" ry="1.87617" fill="#2F3E46"/>
<ellipse cx="26.2515" cy="34.4656" rx="1.7622" ry="1.87617" fill="#2F3E46"/>
<ellipse cx="26.2515" cy="44.8568" rx="1.7622" ry="1.87617" fill="#2F3E46"/>
<ellipse cx="26.2515" cy="55.2478" rx="1.7622" ry="1.87617" fill="#2F3E46"/>
<ellipse cx="26.2515" cy="65.6389" rx="1.7622" ry="1.87617" fill="#2F3E46"/>
<ellipse cx="26.2515" cy="76.0299" rx="1.7622" ry="1.87617" fill="#2F3E46"/>
<ellipse cx="26.2515" cy="86.421" rx="1.7622" ry="1.87617" fill="#2F3E46"/>
<ellipse cx="26.2515" cy="96.8121" rx="1.7622" ry="1.87617" fill="#2F3E46"/>
<ellipse cx="32.2165" cy="3.29243" rx="1.7622" ry="1.87617" fill="#2F3E46"/>
<ellipse cx="32.2165" cy="13.6835" rx="1.7622" ry="1.87617" fill="#2F3E46"/>
<ellipse cx="32.2165" cy="24.0745" rx="1.7622" ry="1.87617" fill="#2F3E46"/>
<ellipse cx="32.2165" cy="34.4656" rx="1.7622" ry="1.87617" fill="#2F3E46"/>
<ellipse cx="32.2165" cy="44.8568" rx="1.7622" ry="1.87617" fill="#2F3E46"/>
<ellipse cx="32.2165" cy="55.2478" rx="1.7622" ry="1.87617" fill="#2F3E46"/>
<ellipse cx="32.2165" cy="65.6389" rx="1.7622" ry="1.87617" fill="#2F3E46"/>
<ellipse cx="32.2165" cy="76.0299" rx="1.7622" ry="1.87617" fill="#2F3E46"/>
<ellipse cx="32.2165" cy="86.421" rx="1.7622" ry="1.87617" fill="#2F3E46"/>
<ellipse cx="32.2165" cy="96.8121" rx="1.7622" ry="1.87617" fill="#2F3E46"/>
<ellipse cx="38.1804" cy="3.29243" rx="1.7622" ry="1.87617" fill="#2F3E46"/>
<ellipse cx="38.1804" cy="13.6835" rx="1.7622" ry="1.87617" fill="#2F3E46"/>
<ellipse cx="38.1804" cy="24.0745" rx="1.7622" ry="1.87617" fill="#2F3E46"/>
<ellipse cx="38.1804" cy="34.4656" rx="1.7622" ry="1.87617" fill="#2F3E46"/>
<ellipse cx="38.1804" cy="44.8568" rx="1.7622" ry="1.87617" fill="#2F3E46"/>
<ellipse cx="38.1804" cy="55.2478" rx="1.7622" ry="1.87617" fill="#2F3E46"/>
<ellipse cx="38.1804" cy="65.6389" rx="1.7622" ry="1.87617" fill="#2F3E46"/>
<ellipse cx="38.1804" cy="76.0299" rx="1.7622" ry="1.87617" fill="#2F3E46"/>
<ellipse cx="38.1804" cy="86.421" rx="1.7622" ry="1.87617" fill="#2F3E46"/>
<ellipse cx="38.1804" cy="96.8121" rx="1.7622" ry="1.87617" fill="#2F3E46"/>
</g>
<path d="M389.675 330.989H57.6698C50.9414 330.989 45.4783 325.526 45.4783 318.798V13.3417C45.4783 6.61332 50.9414 1.15027 57.6698 1.15027H389.675C396.403 1.15027 401.866 6.61332 401.866 13.3417V318.798C401.866 325.539 396.415 330.989 389.675 330.989Z" fill="white"/>
<path d="M389.675 330.989C389.675 330.989 389.967 330.953 390.551 330.916C391.135 330.88 391.999 330.758 393.106 330.442C394.201 330.101 395.539 329.542 396.902 328.519C398.253 327.497 399.652 326.025 400.589 323.993C401.647 321.986 401.854 319.443 401.757 316.669C401.745 313.895 401.745 310.853 401.732 307.568C401.72 300.985 401.708 293.393 401.684 284.839C401.647 250.625 401.599 201.154 401.526 140.014C401.513 109.438 401.489 75.9539 401.465 40C401.453 31.0206 401.428 21.8831 401.416 12.6117C401.197 8.10988 398.094 3.87571 393.787 2.31832C391.658 1.43011 389.322 1.57612 386.925 1.56395C384.552 1.56395 382.168 1.56395 379.771 1.56395C360.62 1.57612 340.909 1.57612 320.699 1.58829C239.861 1.60045 150.98 1.61262 57.6942 1.62479C54.8836 1.62479 52.1095 2.65899 50.0046 4.49623C47.8753 6.30914 46.4518 8.91291 46.0867 11.6749C45.8921 13.0376 45.9651 14.4976 45.9529 15.9455V20.277C45.9529 23.1606 45.9529 26.0564 45.9529 28.9279C45.9529 40.4502 45.9529 51.8873 45.9529 63.2514C45.9529 85.9674 45.9529 108.355 45.9407 130.353C45.9286 174.35 45.9164 216.789 45.9164 257.22C45.9042 277.43 45.9042 297.14 45.8921 316.292C45.9042 317.484 45.8556 318.701 45.9407 319.832C46.0624 320.976 46.3057 322.107 46.7438 323.166C47.5955 325.295 49.092 327.145 50.9658 328.446C52.8395 329.736 55.0783 330.478 57.3414 330.527C59.6774 330.539 62.0014 330.539 64.3253 330.551C73.6088 330.551 82.7585 330.564 91.7501 330.564C127.704 330.588 161.188 330.6 191.764 330.624C252.904 330.685 302.376 330.746 336.577 330.783C353.66 330.819 366.934 330.856 375.95 330.868C380.44 330.892 383.871 330.904 386.195 330.916C388.495 330.965 389.675 330.989 389.675 330.989C389.675 330.989 388.495 331.026 386.183 331.038C383.859 331.05 380.44 331.062 375.938 331.087C366.922 331.111 353.66 331.135 336.565 331.172C302.363 331.208 252.892 331.257 191.752 331.33C161.176 331.342 127.692 331.367 91.7379 331.391C82.7464 331.391 73.6088 331.403 64.3131 331.403C61.9892 331.403 59.6531 331.391 57.3049 331.391C54.8836 331.342 52.4745 330.551 50.4669 329.164C48.4593 327.765 46.8654 325.794 45.9407 323.507C45.4662 322.375 45.2107 321.146 45.0769 319.929C44.9795 318.676 45.0282 317.508 45.016 316.304C45.0039 297.153 45.0039 277.442 44.9917 257.232C44.9795 216.801 44.9674 174.362 44.9674 130.365C44.9674 108.367 44.9674 85.9796 44.9552 63.2635C44.9552 51.8994 44.9552 40.4623 44.9552 28.94C44.9552 26.0564 44.9552 23.1728 44.9552 20.2892V15.9577C44.9795 14.522 44.8822 13.0741 45.1012 11.5532C45.5027 8.56006 47.0479 5.73728 49.3475 3.77837C51.6228 1.79513 54.6402 0.675751 57.6699 0.675751C150.955 0.687918 239.836 0.700086 320.675 0.712253C340.885 0.72442 360.595 0.724418 379.746 0.736586C382.143 0.736586 384.528 0.736586 386.901 0.736586C389.225 0.748753 391.768 0.59058 394.055 1.55178C398.666 3.21868 401.988 7.75703 402.219 12.5752C402.231 21.8709 402.231 31.0206 402.243 40.0121C402.219 75.9661 402.207 109.45 402.183 140.026C402.122 201.166 402.061 250.638 402.024 284.852C402.012 293.405 401.988 300.997 401.976 307.58C401.964 310.865 401.964 313.907 401.951 316.681C402.049 319.431 401.805 322.071 400.723 324.091C399.749 326.147 398.313 327.631 396.939 328.653C395.552 329.675 394.189 330.223 393.094 330.551C391.974 330.856 391.098 330.965 390.514 330.989C389.967 330.989 389.675 330.989 389.675 330.989Z" fill="#2F3E46"/>
<path d="M69.1679 24.0124C69.1679 27.4192 66.4059 30.169 63.0113 30.169C59.6045 30.169 56.8547 27.407 56.8547 24.0124C56.8547 20.6056 59.6167 17.8558 63.0113 17.8558C66.4059 17.8436 69.1679 20.6056 69.1679 24.0124Z" fill="#2F3E46"/>
<path d="M81.0064 30.1689C84.4066 30.1689 87.163 27.4125 87.163 24.0123C87.163 20.6122 84.4066 17.8558 81.0064 17.8558C77.6062 17.8558 74.8499 20.6122 74.8499 24.0123C74.8499 27.4125 77.6062 30.1689 81.0064 30.1689Z" fill="#2F3E46"/>
<path d="M99.0016 30.1689C102.402 30.1689 105.158 27.4125 105.158 24.0123C105.158 20.6122 102.402 17.8558 99.0016 17.8558C95.6014 17.8558 92.845 20.6122 92.845 24.0123C92.845 27.4125 95.6014 30.1689 99.0016 30.1689Z" fill="#2F3E46"/>
<path d="M400.26 41.4844C400.26 41.752 320.468 41.971 222.072 41.971C123.64 41.971 43.8602 41.752 43.8602 41.4844C43.8602 41.2167 123.628 40.9977 222.072 40.9977C320.48 41.0098 400.26 41.2167 400.26 41.4844Z" fill="#2F3E46"/>
<path d="M279.781 207.14C279.781 207.14 279.964 206.885 280.341 206.386C280.438 206.264 280.535 206.13 280.657 205.972C280.767 205.814 280.864 205.619 280.973 205.425C281.205 205.023 281.484 204.573 281.679 204.001C281.789 203.721 281.923 203.429 282.032 203.113C282.117 202.784 282.215 202.444 282.312 202.091C282.421 201.738 282.482 201.349 282.543 200.947C282.592 200.546 282.701 200.132 282.713 199.694C282.908 197.942 282.786 195.886 282.434 193.635C281.728 189.096 279.805 183.755 276.861 177.951C273.917 172.135 269.877 165.869 264.901 159.348C259.924 152.826 253.938 146.085 247.064 139.32C240.177 132.556 232.39 125.766 223.654 119.33C219.286 116.118 214.675 113.003 209.808 110.071C204.953 107.126 199.831 104.389 194.429 102.004C189.026 99.6556 183.332 97.6115 177.322 96.6381C174.328 96.1758 171.238 95.9568 168.196 96.4191C166.675 96.6503 165.191 97.064 163.792 97.6967C162.417 98.3658 161.139 99.2662 160.093 100.398C159.083 101.566 158.329 102.929 157.818 104.376C157.355 105.836 157.1 107.37 157.051 108.903C156.942 111.969 157.513 115.023 158.304 117.943C159.947 123.807 162.636 129.234 165.58 134.332C168.561 139.43 171.858 144.199 175.338 148.689C178.806 153.179 182.432 157.413 186.118 161.392C193.504 169.337 201.145 176.309 208.64 182.38C216.147 188.439 223.52 193.622 230.577 197.82C237.622 202.018 244.302 205.327 250.422 207.59C256.53 209.853 262.054 211.155 266.641 211.338C268.928 211.423 270.972 211.313 272.7 210.924C273.138 210.863 273.539 210.705 273.929 210.608C274.318 210.498 274.695 210.401 275.036 210.243C275.377 210.109 275.705 209.975 276.021 209.841C276.326 209.695 276.593 209.525 276.861 209.391C277.408 209.123 277.822 208.795 278.187 208.527C278.37 208.393 278.552 208.272 278.698 208.15C278.832 208.016 278.966 207.895 279.075 207.785C279.55 207.347 279.781 207.14 279.781 207.14C279.781 207.14 279.562 207.371 279.124 207.809C279.015 207.919 278.893 208.041 278.759 208.174C278.613 208.296 278.443 208.418 278.26 208.564C277.895 208.844 277.481 209.184 276.934 209.452C276.666 209.598 276.399 209.768 276.094 209.914C275.778 210.048 275.45 210.182 275.109 210.328C274.768 210.486 274.391 210.596 274.002 210.705C273.6 210.802 273.211 210.961 272.773 211.034C271.045 211.435 268.989 211.569 266.689 211.484C262.078 211.326 256.53 210.036 250.41 207.785C244.277 205.534 237.573 202.237 230.504 198.051C223.435 193.854 216.037 188.683 208.518 182.623C200.999 176.552 193.346 169.58 185.936 161.623C182.237 157.644 178.611 153.41 175.131 148.908C171.652 144.406 168.33 139.625 165.337 134.514C162.38 129.404 159.679 123.953 158.024 118.04C157.221 115.096 156.637 112.017 156.759 108.89C156.82 107.333 157.063 105.776 157.55 104.267C158.073 102.783 158.852 101.371 159.898 100.167C160.981 98.9985 162.295 98.0617 163.706 97.3803C165.142 96.7354 166.675 96.3096 168.208 96.0784C171.299 95.6161 174.426 95.8351 177.443 96.3096C183.502 97.283 189.221 99.3514 194.635 101.7C200.05 104.084 205.184 106.834 210.051 109.791C214.918 112.735 219.542 115.862 223.91 119.087C232.658 125.535 240.457 132.349 247.331 139.126C254.206 145.915 260.192 152.668 265.156 159.214C270.12 165.76 274.16 172.038 277.092 177.878C280.024 183.706 281.935 189.072 282.616 193.635C282.957 195.91 283.066 197.966 282.859 199.73C282.847 200.168 282.726 200.594 282.677 200.996C282.616 201.397 282.543 201.787 282.434 202.139C282.336 202.504 282.239 202.845 282.142 203.174C282.032 203.49 281.886 203.782 281.776 204.062C281.57 204.634 281.278 205.084 281.046 205.485C280.925 205.68 280.827 205.875 280.718 206.033C280.596 206.179 280.487 206.325 280.389 206.447C279.988 206.897 279.781 207.14 279.781 207.14Z" fill="#B6D6DA"/>
<path d="M301.913 153.714C301.913 153.714 301.877 153.398 301.828 152.777C301.816 152.619 301.804 152.449 301.792 152.254C301.767 152.059 301.706 151.865 301.67 151.634C301.573 151.183 301.487 150.66 301.256 150.101C301.147 149.821 301.062 149.516 300.928 149.2C300.782 148.896 300.624 148.58 300.453 148.251C300.307 147.91 300.088 147.582 299.869 147.241C299.638 146.901 299.443 146.523 299.163 146.183C298.141 144.747 296.681 143.299 294.917 141.839C291.376 138.919 286.388 136.218 280.317 133.845C274.245 131.46 267.067 129.489 259.012 127.932C250.957 126.375 242.002 125.328 232.366 124.854C222.729 124.391 212.387 124.513 201.583 125.523C196.181 126.034 190.669 126.776 185.084 127.822C179.5 128.857 173.854 130.219 168.245 132.044C162.648 133.882 157.039 136.157 151.904 139.43C149.362 141.085 146.904 142.971 144.945 145.331C143.972 146.511 143.132 147.813 142.511 149.212C141.927 150.636 141.575 152.145 141.55 153.69C141.575 155.235 141.927 156.756 142.499 158.167C143.132 159.567 143.959 160.868 144.933 162.061C146.892 164.433 149.349 166.319 151.892 167.974C157.027 171.259 162.636 173.522 168.233 175.359C173.842 177.185 179.487 178.547 185.072 179.581C190.657 180.628 196.169 181.37 201.571 181.881C212.375 182.891 222.717 183.013 232.354 182.55C241.99 182.076 250.945 181.029 259 179.472C267.054 177.915 274.245 175.944 280.304 173.559C286.364 171.186 291.352 168.485 294.893 165.565C296.657 164.117 298.105 162.657 299.139 161.221C299.419 160.881 299.614 160.503 299.845 160.163C300.064 159.822 300.283 159.494 300.429 159.153C300.599 158.824 300.745 158.496 300.903 158.204C301.025 157.887 301.122 157.583 301.232 157.303C301.463 156.744 301.548 156.221 301.646 155.77C301.694 155.551 301.743 155.345 301.767 155.15C301.779 154.955 301.792 154.785 301.804 154.627C301.889 154.03 301.913 153.714 301.913 153.714C301.913 153.714 301.901 154.031 301.865 154.651C301.852 154.809 301.84 154.98 301.828 155.174C301.804 155.369 301.755 155.576 301.706 155.795C301.621 156.245 301.536 156.78 301.305 157.34C301.208 157.62 301.11 157.936 300.989 158.252C300.843 158.557 300.684 158.873 300.526 159.214C300.38 159.554 300.173 159.895 299.942 160.236C299.711 160.576 299.516 160.966 299.236 161.306C298.214 162.754 296.767 164.227 294.99 165.687C291.449 168.631 286.449 171.369 280.377 173.766C274.306 176.175 267.103 178.17 259.048 179.752C250.982 181.334 242.014 182.392 232.366 182.879C222.717 183.353 212.363 183.244 201.534 182.234C196.12 181.723 190.596 180.981 184.999 179.934C179.402 178.9 173.745 177.537 168.111 175.712C162.502 173.863 156.857 171.588 151.685 168.29C149.118 166.623 146.636 164.713 144.641 162.304C143.643 161.1 142.791 159.773 142.146 158.325C141.55 156.865 141.197 155.296 141.161 153.702C141.185 152.108 141.55 150.539 142.146 149.078C142.791 147.631 143.643 146.304 144.641 145.1C146.636 142.691 149.118 140.78 151.685 139.126C156.857 135.828 162.49 133.553 168.099 131.704C173.732 129.879 179.39 128.516 184.987 127.482C190.584 126.435 196.108 125.693 201.51 125.194C212.327 124.184 222.681 124.075 232.329 124.55C241.978 125.036 250.945 126.095 259.012 127.676C267.079 129.258 274.269 131.254 280.341 133.663C286.412 136.06 291.413 138.785 294.954 141.742C296.718 143.214 298.166 144.674 299.2 146.122C299.48 146.463 299.674 146.852 299.906 147.193C300.125 147.533 300.332 147.874 300.49 148.215C300.648 148.555 300.806 148.872 300.952 149.176C301.074 149.492 301.171 149.796 301.268 150.088C301.487 150.648 301.573 151.183 301.67 151.634C301.706 151.865 301.767 152.059 301.792 152.254C301.804 152.449 301.816 152.619 301.828 152.777C301.913 153.398 301.913 153.714 301.913 153.714Z" fill="#B6D6DA"/>
<path d="M272.59 87.2208C272.59 87.2208 272.323 87.0504 271.799 86.7098C271.666 86.6246 271.52 86.5272 271.361 86.4177C271.191 86.3204 270.996 86.2352 270.79 86.1379C270.376 85.9432 269.901 85.6877 269.317 85.5295C269.025 85.4444 268.733 85.3227 268.405 85.2375C268.076 85.1645 267.723 85.1037 267.358 85.0307C266.993 84.9455 266.604 84.909 266.203 84.8725C265.801 84.8482 265.375 84.763 264.937 84.7873C263.173 84.7143 261.141 84.982 258.902 85.4809C254.425 86.4907 249.229 88.7782 243.645 92.112C238.048 95.4458 232.074 99.9111 225.917 105.325C219.748 110.74 213.434 117.176 207.155 124.501C200.889 131.838 194.648 140.075 188.832 149.237C185.924 153.824 183.137 158.63 180.546 163.679C177.942 168.728 175.557 174.021 173.562 179.569C171.591 185.118 169.948 190.946 169.389 197.005C169.133 200.022 169.121 203.125 169.79 206.118C170.131 207.615 170.642 209.075 171.372 210.425C172.138 211.752 173.124 212.956 174.328 213.929C175.569 214.854 176.981 215.511 178.453 215.925C179.95 216.29 181.483 216.424 183.016 216.375C186.082 216.278 189.087 215.499 191.946 214.501C197.677 212.457 202.909 209.403 207.8 206.118C212.679 202.796 217.218 199.171 221.452 195.387C225.698 191.615 229.665 187.709 233.376 183.755C240.798 175.834 247.222 167.743 252.77 159.834C258.306 151.926 262.954 144.212 266.665 136.887C270.364 129.562 273.211 122.676 275.036 116.422C276.873 110.18 277.798 104.571 277.652 99.9841C277.591 97.6967 277.323 95.6648 276.824 93.9735C276.727 93.5355 276.545 93.1583 276.423 92.769C276.289 92.3796 276.155 92.0146 275.985 91.6861C275.827 91.3576 275.669 91.0291 275.523 90.7249C275.352 90.4329 275.17 90.1652 275.012 89.9219C274.707 89.3987 274.355 89.0093 274.05 88.6565C273.904 88.4862 273.771 88.3158 273.637 88.182C273.491 88.0481 273.369 87.9386 273.247 87.8291C272.822 87.4398 272.59 87.2208 272.59 87.2208C272.59 87.2208 272.834 87.4276 273.296 87.8291C273.418 87.9265 273.539 88.0481 273.685 88.1698C273.819 88.3037 273.953 88.474 274.111 88.6443C274.415 88.9972 274.78 89.3865 275.085 89.9097C275.243 90.1652 275.437 90.4329 275.608 90.7249C275.754 91.0291 275.912 91.3454 276.082 91.6861C276.265 92.0146 276.399 92.3796 276.532 92.769C276.666 93.1583 276.849 93.5477 276.946 93.9735C277.469 95.6769 277.737 97.721 277.81 100.008C277.968 104.62 277.068 110.241 275.243 116.507C273.43 122.785 270.595 129.696 266.896 137.033C263.197 144.37 258.549 152.108 253.026 160.029C247.49 167.95 241.065 176.065 233.631 183.998C229.92 187.965 225.941 191.87 221.695 195.654C217.449 199.438 212.898 203.076 208.007 206.41C203.104 209.72 197.86 212.774 192.08 214.842C189.197 215.852 186.167 216.643 183.04 216.74C181.483 216.789 179.901 216.643 178.368 216.278C176.847 215.852 175.387 215.183 174.109 214.221C172.868 213.224 171.846 211.971 171.068 210.608C170.325 209.221 169.802 207.724 169.449 206.203C168.768 203.149 168.78 200.022 169.036 196.981C169.595 190.873 171.25 185.02 173.233 179.46C175.241 173.887 177.638 168.582 180.242 163.533C182.845 158.472 185.644 153.653 188.552 149.066C194.392 139.892 200.646 131.655 206.936 124.318C213.239 116.994 219.566 110.557 225.747 105.155C231.928 99.7529 237.914 95.2876 243.547 91.9538C249.156 88.62 254.376 86.3447 258.878 85.3592C261.117 84.8604 263.173 84.617 264.949 84.69C265.387 84.6778 265.813 84.763 266.227 84.7873C266.641 84.8238 267.03 84.8603 267.383 84.9577C267.748 85.0307 268.101 85.1037 268.429 85.1767C268.758 85.274 269.05 85.3835 269.342 85.4809C269.926 85.6512 270.4 85.9067 270.814 86.1136C271.021 86.2231 271.215 86.3082 271.374 86.4056C271.532 86.5151 271.678 86.6124 271.799 86.6976C272.335 87.0261 272.59 87.2208 272.59 87.2208Z" fill="#B6D6DA"/>
<path d="M140.516 186.845C141.684 188.013 141.684 189.899 140.516 191.055C139.348 192.223 137.462 192.223 136.306 191.055C135.138 189.887 135.138 188.001 136.306 186.845C137.462 185.677 139.36 185.677 140.516 186.845Z" fill="#B6D6DA"/>
<path d="M308.702 94.4723C308.702 96.1149 307.364 97.4533 305.722 97.4533C304.079 97.4533 302.741 96.1149 302.741 94.4723C302.741 92.8298 304.079 91.4914 305.722 91.4914C307.364 91.4914 308.702 92.8298 308.702 94.4723Z" fill="#B6D6DA"/>
<path d="M159.339 196.64C159.339 197.054 158.998 197.394 158.584 197.394C158.171 197.394 157.83 197.054 157.83 196.64C157.83 196.226 158.171 195.886 158.584 195.886C158.998 195.886 159.339 196.226 159.339 196.64Z" fill="#B6D6DA"/>
<path d="M175.509 113.112C175.509 113.526 175.168 113.867 174.754 113.867C174.341 113.867 174 113.526 174 113.112C174 112.699 174.341 112.358 174.754 112.358C175.168 112.358 175.509 112.699 175.509 113.112Z" fill="#B6D6DA"/>
<path d="M293.725 153.714C293.725 154.128 293.384 154.469 292.97 154.469C292.557 154.469 292.216 154.128 292.216 153.714C292.216 153.301 292.557 152.96 292.97 152.96C293.384 152.96 293.725 153.301 293.725 153.714Z" fill="#B6D6DA"/>
<path d="M304.261 118.393C304.261 118.807 303.921 119.147 303.507 119.147C303.093 119.147 302.753 118.807 302.753 118.393C302.753 117.979 303.093 117.639 303.507 117.639C303.921 117.639 304.261 117.979 304.261 118.393Z" fill="#B6D6DA"/>
<path d="M328.097 272.575H119.163C112.897 272.575 107.823 267.501 107.823 261.235V247.146C107.823 240.88 112.897 235.806 119.163 235.806H328.097C334.363 235.806 339.437 240.88 339.437 247.146V261.235C339.437 267.501 334.363 272.575 328.097 272.575Z" fill="#F5F5F5"/>
<path d="M176.263 138.323L266.105 137.483L268.733 198.562L175.703 197.893L176.263 138.323Z" fill="#2F3E46"/>
<path d="M176.263 138.323L218.714 103.829C220.515 102.369 223.082 102.369 224.883 103.841L266.105 137.483" fill="#2F3E46"/>
<g opacity="0.3">
<path d="M176.263 138.323L218.714 103.829C220.515 102.369 223.082 102.369 224.883 103.841L266.105 137.483" fill="black"/>
</g>
<path d="M175.703 197.893C175.594 197.784 182.773 189.924 191.728 180.324C200.695 170.724 208.044 163.022 208.165 163.132C208.275 163.241 201.108 171.101 192.141 180.701C183.174 190.301 175.825 198.003 175.703 197.893Z" fill="#2F3E46"/>
<path d="M268.733 198.562C268.624 198.66 261.604 190.982 253.05 181.407C244.509 171.831 237.671 163.983 237.78 163.886C237.89 163.789 244.91 171.466 253.464 181.042C262.017 190.617 268.843 198.465 268.733 198.562Z" fill="#2F3E46"/>
<g opacity="0.5">
<path d="M266.105 137.483L221.063 173.62L176.263 138.323" fill="black"/>
</g>
<path d="M180.802 141.656L180.595 113.599L259.267 112.504L260.204 142.022L221.063 173.145L180.802 141.656Z" fill="#FAFAFA"/>
<path d="M180.801 141.656C180.801 141.656 181.057 141.839 181.544 142.216C182.03 142.593 182.748 143.153 183.685 143.871C185.559 145.331 188.309 147.46 191.825 150.198C198.845 155.673 208.92 163.521 221.136 173.048H220.965C232.244 164.068 245.616 153.422 260.095 141.9L260.034 142.034C259.851 136.4 259.657 130.499 259.474 124.476C259.34 120.425 259.219 116.434 259.085 112.504L259.255 112.662C227.56 113.076 199.6 113.453 180.595 113.696L180.704 113.587C180.741 122.408 180.777 129.416 180.801 134.222C180.801 136.619 180.814 138.469 180.814 139.734C180.814 140.355 180.814 140.829 180.814 141.158C180.801 141.486 180.801 141.656 180.801 141.656C180.801 141.656 180.789 141.498 180.789 141.182C180.789 140.853 180.777 140.391 180.765 139.771C180.753 138.517 180.728 136.668 180.704 134.271C180.655 129.453 180.595 122.432 180.509 113.599V113.49H180.619C199.624 113.21 227.584 112.796 259.28 112.334H259.438V112.492C259.559 116.41 259.693 120.413 259.827 124.464C260.022 130.475 260.204 136.388 260.387 142.022V142.107L260.326 142.155C245.835 153.665 232.451 164.3 221.16 173.255L221.075 173.315L220.99 173.255C208.786 163.679 198.724 155.783 191.715 150.271C188.223 147.521 185.498 145.367 183.636 143.895C182.712 143.165 182.006 142.606 181.531 142.216C181.033 141.851 180.801 141.656 180.801 141.656Z" fill="#2F3E46"/>
<path d="M246.857 126.654C246.857 126.74 234.824 126.922 219.992 127.044C205.148 127.165 193.127 127.19 193.115 127.092C193.115 127.007 205.136 126.825 219.98 126.703C234.824 126.594 246.857 126.569 246.857 126.654Z" fill="#2F3E46"/>
<path d="M246.869 134.587C246.869 134.673 234.836 134.855 220.004 134.977C205.16 135.098 193.139 135.123 193.127 135.025C193.127 134.94 205.148 134.758 219.992 134.636C234.848 134.514 246.869 134.49 246.869 134.587Z" fill="#2F3E46"/>
<path d="M246.893 143.713C246.893 143.798 234.86 143.98 220.028 144.102C205.184 144.224 193.163 144.248 193.151 144.151C193.151 144.066 205.172 143.883 220.016 143.761C234.86 143.652 246.893 143.628 246.893 143.713Z" fill="#2F3E46"/>
<path d="M246.918 152.85C246.918 152.935 235.444 153.106 221.282 153.227C207.119 153.337 195.645 153.361 195.645 153.276C195.645 153.191 207.119 153.021 221.282 152.899C235.432 152.777 246.918 152.765 246.918 152.85Z" fill="#2F3E46"/>
<path d="M236.868 160.893C236.868 160.905 236.758 160.917 236.551 160.929C236.308 160.941 236.004 160.954 235.651 160.966C234.811 160.99 233.692 161.014 232.329 161.051C229.482 161.1 225.625 161.173 221.367 161.246C217.084 161.331 213.202 161.355 210.392 161.343C209.029 161.331 207.898 161.331 207.07 161.319C206.705 161.306 206.413 161.306 206.17 161.294C205.963 161.282 205.854 161.27 205.854 161.258C205.854 161.246 205.963 161.233 206.17 161.221C206.413 161.209 206.717 161.197 207.07 161.185C207.91 161.16 209.029 161.136 210.392 161.1C213.239 161.051 217.096 160.978 221.354 160.905C225.637 160.82 229.519 160.795 232.317 160.808C233.68 160.82 234.811 160.82 235.639 160.832C236.004 160.844 236.296 160.844 236.539 160.856C236.758 160.868 236.868 160.881 236.868 160.893Z" fill="#2F3E46"/>
<path d="M226.757 168.619C226.757 168.704 224.189 168.789 221.026 168.801C217.863 168.814 215.295 168.741 215.295 168.643C215.295 168.558 217.863 168.473 221.026 168.461C224.189 168.461 226.757 168.522 226.757 168.619Z" fill="#2F3E46"/>
</svg>
