<svg width="274" height="212" viewBox="0 0 274 212" fill="none" xmlns="http://www.w3.org/2000/svg">
<g opacity="0.3">
<ellipse cx="236.452" cy="115.188" rx="1.7622" ry="1.87617" fill="#263238"/>
<ellipse cx="236.452" cy="125.579" rx="1.7622" ry="1.87617" fill="#263238"/>
<ellipse cx="236.452" cy="135.971" rx="1.7622" ry="1.87617" fill="#263238"/>
<ellipse cx="236.452" cy="146.362" rx="1.7622" ry="1.87617" fill="#263238"/>
<ellipse cx="236.452" cy="156.753" rx="1.7622" ry="1.87617" fill="#263238"/>
<ellipse cx="236.452" cy="167.144" rx="1.7622" ry="1.87617" fill="#263238"/>
<ellipse cx="236.452" cy="177.535" rx="1.7622" ry="1.87617" fill="#263238"/>
<ellipse cx="236.452" cy="187.926" rx="1.7622" ry="1.87617" fill="#263238"/>
<ellipse cx="236.452" cy="198.317" rx="1.7622" ry="1.87617" fill="#263238"/>
<ellipse cx="236.452" cy="208.708" rx="1.7622" ry="1.87617" fill="#263238"/>
<ellipse cx="242.416" cy="115.188" rx="1.7622" ry="1.87617" fill="#263238"/>
<ellipse cx="242.416" cy="125.579" rx="1.7622" ry="1.87617" fill="#263238"/>
<ellipse cx="242.416" cy="135.971" rx="1.7622" ry="1.87617" fill="#263238"/>
<ellipse cx="242.416" cy="146.362" rx="1.7622" ry="1.87617" fill="#263238"/>
<ellipse cx="242.416" cy="156.753" rx="1.7622" ry="1.87617" fill="#263238"/>
<ellipse cx="242.416" cy="167.144" rx="1.7622" ry="1.87617" fill="#263238"/>
<ellipse cx="242.416" cy="177.535" rx="1.7622" ry="1.87617" fill="#263238"/>
<ellipse cx="242.416" cy="187.926" rx="1.7622" ry="1.87617" fill="#263238"/>
<ellipse cx="242.416" cy="198.317" rx="1.7622" ry="1.87617" fill="#263238"/>
<ellipse cx="242.416" cy="208.708" rx="1.7622" ry="1.87617" fill="#263238"/>
<ellipse cx="248.381" cy="115.188" rx="1.7622" ry="1.87617" fill="#263238"/>
<ellipse cx="248.381" cy="125.579" rx="1.7622" ry="1.87617" fill="#263238"/>
<ellipse cx="248.381" cy="135.971" rx="1.7622" ry="1.87617" fill="#263238"/>
<ellipse cx="248.381" cy="146.362" rx="1.7622" ry="1.87617" fill="#263238"/>
<ellipse cx="248.381" cy="156.753" rx="1.7622" ry="1.87617" fill="#263238"/>
<ellipse cx="248.381" cy="167.144" rx="1.7622" ry="1.87617" fill="#263238"/>
<ellipse cx="248.381" cy="177.535" rx="1.7622" ry="1.87617" fill="#263238"/>
<ellipse cx="248.381" cy="187.926" rx="1.7622" ry="1.87617" fill="#263238"/>
<ellipse cx="248.381" cy="198.317" rx="1.7622" ry="1.87617" fill="#263238"/>
<ellipse cx="248.381" cy="208.708" rx="1.7622" ry="1.87617" fill="#263238"/>
<ellipse cx="254.345" cy="115.188" rx="1.7622" ry="1.87617" fill="#263238"/>
<ellipse cx="254.345" cy="125.579" rx="1.7622" ry="1.87617" fill="#263238"/>
<ellipse cx="254.345" cy="135.971" rx="1.7622" ry="1.87617" fill="#263238"/>
<ellipse cx="254.345" cy="146.362" rx="1.7622" ry="1.87617" fill="#263238"/>
<ellipse cx="254.345" cy="156.753" rx="1.7622" ry="1.87617" fill="#263238"/>
<ellipse cx="254.345" cy="167.144" rx="1.7622" ry="1.87617" fill="#263238"/>
<ellipse cx="254.345" cy="177.535" rx="1.7622" ry="1.87617" fill="#263238"/>
<ellipse cx="254.345" cy="187.926" rx="1.7622" ry="1.87617" fill="#263238"/>
<ellipse cx="254.345" cy="198.317" rx="1.7622" ry="1.87617" fill="#263238"/>
<ellipse cx="254.345" cy="208.708" rx="1.7622" ry="1.87617" fill="#263238"/>
<ellipse cx="260.309" cy="115.188" rx="1.7622" ry="1.87617" fill="#263238"/>
<ellipse cx="260.309" cy="125.579" rx="1.7622" ry="1.87617" fill="#263238"/>
<ellipse cx="260.309" cy="135.971" rx="1.7622" ry="1.87617" fill="#263238"/>
<ellipse cx="260.309" cy="146.362" rx="1.7622" ry="1.87617" fill="#263238"/>
<ellipse cx="260.309" cy="156.753" rx="1.7622" ry="1.87617" fill="#263238"/>
<ellipse cx="260.309" cy="167.144" rx="1.7622" ry="1.87617" fill="#263238"/>
<ellipse cx="260.309" cy="177.535" rx="1.7622" ry="1.87617" fill="#263238"/>
<ellipse cx="260.309" cy="187.926" rx="1.7622" ry="1.87617" fill="#263238"/>
<ellipse cx="260.309" cy="198.317" rx="1.7622" ry="1.87617" fill="#263238"/>
<ellipse cx="260.309" cy="208.708" rx="1.7622" ry="1.87617" fill="#263238"/>
<ellipse cx="266.274" cy="115.188" rx="1.7622" ry="1.87617" fill="#263238"/>
<ellipse cx="266.274" cy="125.579" rx="1.7622" ry="1.87617" fill="#263238"/>
<ellipse cx="266.274" cy="135.971" rx="1.7622" ry="1.87617" fill="#263238"/>
<ellipse cx="266.274" cy="146.362" rx="1.7622" ry="1.87617" fill="#263238"/>
<ellipse cx="266.274" cy="156.753" rx="1.7622" ry="1.87617" fill="#263238"/>
<ellipse cx="266.274" cy="167.144" rx="1.7622" ry="1.87617" fill="#263238"/>
<ellipse cx="266.274" cy="177.535" rx="1.7622" ry="1.87617" fill="#263238"/>
<ellipse cx="266.274" cy="187.926" rx="1.7622" ry="1.87617" fill="#263238"/>
<ellipse cx="266.274" cy="198.317" rx="1.7622" ry="1.87617" fill="#263238"/>
<ellipse cx="266.274" cy="208.708" rx="1.7622" ry="1.87617" fill="#263238"/>
<ellipse cx="272.238" cy="115.188" rx="1.7622" ry="1.87617" fill="#263238"/>
<ellipse cx="272.238" cy="125.579" rx="1.7622" ry="1.87617" fill="#263238"/>
<ellipse cx="272.238" cy="135.971" rx="1.7622" ry="1.87617" fill="#263238"/>
<ellipse cx="272.238" cy="146.362" rx="1.7622" ry="1.87617" fill="#263238"/>
<ellipse cx="272.238" cy="156.753" rx="1.7622" ry="1.87617" fill="#263238"/>
<ellipse cx="272.238" cy="167.144" rx="1.7622" ry="1.87617" fill="#263238"/>
<ellipse cx="272.238" cy="177.535" rx="1.7622" ry="1.87617" fill="#263238"/>
<ellipse cx="272.238" cy="187.926" rx="1.7622" ry="1.87617" fill="#263238"/>
<ellipse cx="272.238" cy="198.317" rx="1.7622" ry="1.87617" fill="#263238"/>
<ellipse cx="272.238" cy="208.708" rx="1.7622" ry="1.87617" fill="#263238"/>
</g>
<path d="M221.288 211.142H9.33557C5.04013 211.142 1.55252 207.654 1.55252 203.359V8.35556C1.55252 4.06012 5.04013 0.572514 9.33557 0.572514H221.288C225.583 0.572514 229.071 4.06012 229.071 8.35556V203.359C229.071 207.662 225.591 211.142 221.288 211.142Z" fill="white"/>
<path d="M221.287 211.142C221.287 211.142 221.474 211.119 221.847 211.095C222.22 211.072 222.771 210.994 223.478 210.792C224.177 210.575 225.031 210.218 225.901 209.565C226.764 208.913 227.657 207.973 228.255 206.676C228.931 205.394 229.063 203.771 229.001 202C228.993 200.229 228.993 198.287 228.985 196.189C228.977 191.987 228.97 187.14 228.954 181.68C228.931 159.838 228.9 128.255 228.853 89.2231C228.845 69.7034 228.83 48.3272 228.814 25.3742C228.806 19.6418 228.791 13.8084 228.783 7.88955C228.643 5.01557 226.663 2.31248 223.913 1.31824C222.554 0.751209 221.062 0.844418 219.532 0.83665C218.017 0.83665 216.495 0.83665 214.965 0.83665C202.739 0.844418 190.155 0.844418 177.253 0.852186C125.646 0.859953 68.9045 0.867721 9.35102 0.875489C7.55672 0.875489 5.78573 1.53573 4.44195 2.70862C3.08264 3.86598 2.17384 5.52823 1.94082 7.29145C1.81654 8.16141 1.86314 9.09351 1.85537 10.0178V12.7831C1.85537 14.624 1.85537 16.4726 1.85537 18.3058C1.85537 25.6616 1.85537 32.9631 1.85537 40.2179C1.85537 54.7198 1.85537 69.0121 1.8476 83.0557C1.83984 111.143 1.83207 138.236 1.83207 164.048C1.8243 176.949 1.8243 189.533 1.81654 201.759C1.8243 202.52 1.79323 203.297 1.8476 204.019C1.92528 204.749 2.08063 205.472 2.36026 206.147C2.90399 207.507 3.85939 208.687 5.05559 209.518C6.25178 210.342 7.681 210.816 9.12576 210.847C10.6171 210.855 12.1007 210.855 13.5843 210.862C19.5109 210.862 25.3521 210.87 31.0923 210.87C54.0453 210.886 75.4214 210.893 94.9412 210.909C133.973 210.948 165.556 210.987 187.39 211.01C198.296 211.033 206.77 211.056 212.526 211.064C215.392 211.08 217.582 211.088 219.066 211.095C220.534 211.126 221.287 211.142 221.287 211.142C221.287 211.142 220.534 211.165 219.058 211.173C217.575 211.181 215.392 211.189 212.518 211.204C206.762 211.22 198.296 211.235 187.382 211.258C165.548 211.282 133.965 211.313 94.9334 211.359C75.4137 211.367 54.0375 211.383 31.0845 211.398C25.3443 211.398 19.5109 211.406 13.5765 211.406C12.0929 211.406 10.6016 211.398 9.10246 211.398C7.55672 211.367 6.01876 210.862 4.73712 209.977C3.45548 209.084 2.43794 207.825 1.8476 206.365C1.54467 205.643 1.38155 204.858 1.29611 204.081C1.23397 203.281 1.26504 202.536 1.25728 201.767C1.24951 189.54 1.24951 176.957 1.24174 164.055C1.23397 138.244 1.2262 111.151 1.2262 83.0635C1.2262 69.0198 1.22621 54.7276 1.21844 40.2257C1.21844 32.9708 1.21844 25.6694 1.21844 18.3135C1.21844 16.4726 1.21844 14.6317 1.21844 12.7908V10.0256C1.23397 9.10905 1.17183 8.18471 1.31165 7.21377C1.56798 5.30297 2.55445 3.50091 4.02251 2.25034C5.47503 0.984233 7.40137 0.269623 9.33548 0.269623C68.889 0.27739 125.631 0.285158 177.238 0.292926C190.14 0.300693 202.723 0.300692 214.949 0.30846C216.479 0.30846 218.002 0.30846 219.516 0.30846C221 0.316227 222.623 0.21525 224.084 0.828883C227.028 1.89303 229.148 4.79031 229.296 7.86624C229.304 13.8006 229.304 19.6418 229.311 25.382C229.296 48.335 229.288 69.7111 229.272 89.2309C229.234 128.263 229.195 159.845 229.172 181.688C229.164 187.148 229.148 191.995 229.14 196.197C229.133 198.294 229.133 200.236 229.125 202.007C229.187 203.763 229.032 205.448 228.34 206.738C227.719 208.05 226.802 208.998 225.925 209.651C225.039 210.303 224.169 210.653 223.47 210.862C222.756 211.056 222.196 211.126 221.823 211.142C221.474 211.142 221.287 211.142 221.287 211.142Z" fill="#2F3E46"/>
<path d="M16.6758 15.1677C16.6758 17.3426 14.9126 19.0981 12.7455 19.0981C10.5706 19.0981 8.81512 17.3349 8.81512 15.1677C8.81512 12.9928 10.5783 11.2374 12.7455 11.2374C14.9126 11.2296 16.6758 12.9928 16.6758 15.1677Z" fill="#2F3E46"/>
<path d="M24.2335 19.0981C26.4042 19.0981 28.1639 17.3384 28.1639 15.1677C28.1639 12.997 26.4042 11.2374 24.2335 11.2374C22.0628 11.2374 20.3032 12.997 20.3032 15.1677C20.3032 17.3384 22.0628 19.0981 24.2335 19.0981Z" fill="#2F3E46"/>
<path d="M35.7217 19.0981C37.8924 19.0981 39.6521 17.3384 39.6521 15.1677C39.6521 12.997 37.8924 11.2374 35.7217 11.2374C33.551 11.2374 31.7914 12.997 31.7914 15.1677C31.7914 17.3384 33.551 19.0981 35.7217 19.0981Z" fill="#2F3E46"/>
<path d="M228.045 26.3219C228.045 26.4927 177.106 26.6326 114.29 26.6326C51.4509 26.6326 0.519348 26.4927 0.519348 26.3219C0.519348 26.151 51.4431 26.0112 114.29 26.0112C177.114 26.0189 228.045 26.151 228.045 26.3219Z" fill="#2F3E46"/>
<path d="M151.131 123.399C151.131 123.399 151.248 123.236 151.489 122.917C151.551 122.84 151.613 122.754 151.691 122.653C151.761 122.552 151.823 122.428 151.893 122.304C152.04 122.047 152.219 121.76 152.343 121.395C152.413 121.216 152.499 121.03 152.568 120.828C152.623 120.618 152.685 120.401 152.747 120.175C152.817 119.95 152.856 119.702 152.895 119.445C152.926 119.189 152.996 118.925 153.003 118.645C153.128 117.527 153.05 116.214 152.825 114.777C152.374 111.88 151.147 108.47 149.267 104.765C147.387 101.052 144.809 97.0516 141.632 92.8882C138.455 88.7248 134.633 84.4216 130.245 80.1029C125.848 75.7842 120.877 71.4499 115.3 67.3409C112.511 65.2903 109.567 63.3018 106.46 61.4298C103.361 59.5501 100.091 57.8024 96.6424 56.28C93.1936 54.7808 89.5584 53.4759 85.7212 52.8545C83.8104 52.5593 81.8375 52.4195 79.8956 52.7147C78.9247 52.8622 77.977 53.1263 77.0838 53.5303C76.206 53.9575 75.3905 54.5323 74.7224 55.2546C74.0777 56.0003 73.5962 56.8703 73.2699 57.7946C72.9748 58.7267 72.8116 59.7054 72.7806 60.6841C72.7107 62.6415 73.0757 64.5912 73.5806 66.4554C74.6292 70.1993 76.3459 73.6636 78.2256 76.9182C80.1286 80.1728 82.2336 83.2177 84.4551 86.0839C86.6689 88.9501 88.9836 91.6532 91.3371 94.1932C96.052 99.2653 100.93 103.716 105.715 107.592C110.507 111.46 115.214 114.769 119.72 117.449C124.217 120.129 128.481 122.242 132.388 123.686C136.288 125.131 139.814 125.962 142.743 126.079C144.203 126.133 145.508 126.063 146.611 125.815C146.89 125.776 147.147 125.675 147.395 125.613C147.644 125.543 147.885 125.481 148.102 125.38C148.32 125.294 148.529 125.209 148.731 125.123C148.925 125.03 149.096 124.921 149.267 124.836C149.617 124.665 149.881 124.455 150.114 124.284C150.23 124.199 150.347 124.121 150.44 124.044C150.526 123.958 150.611 123.881 150.681 123.811C150.984 123.531 151.131 123.399 151.131 123.399C151.131 123.399 150.992 123.547 150.712 123.826C150.642 123.896 150.564 123.974 150.479 124.059C150.386 124.137 150.277 124.215 150.16 124.308C149.927 124.486 149.663 124.704 149.314 124.875C149.143 124.968 148.972 125.077 148.778 125.17C148.576 125.255 148.366 125.341 148.149 125.434C147.931 125.535 147.69 125.605 147.442 125.675C147.186 125.737 146.937 125.838 146.657 125.885C145.554 126.141 144.242 126.226 142.774 126.172C139.83 126.071 136.288 125.248 132.381 123.811C128.466 122.374 124.186 120.269 119.673 117.597C115.16 114.917 110.437 111.616 105.637 107.747C100.837 103.871 95.9511 99.4207 91.2206 94.3407C88.8593 91.8008 86.5446 89.0977 84.3231 86.2237C82.1016 83.3497 79.981 80.2971 78.0702 77.0347C76.1827 73.7724 74.4583 70.2925 73.402 66.5175C72.8893 64.6378 72.5165 62.6726 72.5941 60.6764C72.633 59.6821 72.7883 58.6879 73.099 57.7247C73.433 56.7771 73.9302 55.876 74.5982 55.1071C75.2895 54.3614 76.1284 53.7633 77.0294 53.3283C77.946 52.9166 78.9247 52.6448 79.9034 52.4972C81.8763 52.202 83.8726 52.3418 85.7989 52.6448C89.6671 53.2662 93.3179 54.5866 96.7744 56.0858C100.231 57.6082 103.509 59.3636 106.616 61.2512C109.723 63.1309 112.674 65.1271 115.463 67.1855C121.048 71.3023 126.027 75.6521 130.415 79.9786C134.804 84.3129 138.626 88.6239 141.795 92.8028C144.964 96.9817 147.543 100.99 149.415 104.718C151.287 108.439 152.506 111.864 152.941 114.777C153.159 116.23 153.229 117.542 153.097 118.669C153.089 118.948 153.011 119.22 152.98 119.476C152.941 119.733 152.895 119.981 152.825 120.207C152.763 120.44 152.7 120.657 152.638 120.867C152.568 121.069 152.475 121.255 152.405 121.434C152.273 121.799 152.087 122.086 151.939 122.343C151.862 122.467 151.799 122.591 151.73 122.692C151.652 122.785 151.582 122.879 151.52 122.956C151.263 123.244 151.131 123.399 151.131 123.399Z" fill="#B6D6DA"/>
<path d="M165.261 89.2919C165.261 89.2919 165.237 89.0899 165.206 88.6938C165.198 88.5928 165.191 88.484 165.183 88.3598C165.167 88.2355 165.129 88.1112 165.105 87.9636C165.043 87.6762 164.989 87.3422 164.841 86.9849C164.771 86.8063 164.717 86.6121 164.631 86.4101C164.538 86.2159 164.437 86.014 164.328 85.8042C164.235 85.5867 164.095 85.377 163.956 85.1595C163.808 84.942 163.684 84.7013 163.505 84.4838C162.853 83.5672 161.921 82.6429 160.794 81.7108C158.534 79.8466 155.349 78.1222 151.473 76.6075C147.597 75.0851 143.014 73.8267 137.872 72.8325C132.73 71.8383 127.013 71.1703 120.861 70.8673C114.71 70.5722 108.107 70.6498 101.21 71.2945C97.7609 71.6208 94.2422 72.0946 90.6769 72.7626C87.1117 73.4228 83.5075 74.2928 79.9267 75.4579C76.3537 76.6308 72.7728 78.0833 69.495 80.1728C67.8715 81.2292 66.3025 82.4331 65.0519 83.94C64.4305 84.6935 63.8946 85.5246 63.4984 86.4179C63.1256 87.3267 62.9003 88.2898 62.8848 89.2763C62.9003 90.2628 63.1256 91.2337 63.4907 92.1348C63.8946 93.028 64.4228 93.8592 65.0442 94.6204C66.2947 96.135 67.8638 97.339 69.4872 98.3954C72.7651 100.493 76.3459 101.937 79.919 103.11C83.4998 104.275 87.1039 105.145 90.6692 105.806C94.2345 106.474 97.7531 106.947 101.202 107.274C108.099 107.918 114.702 107.996 120.854 107.701C127.006 107.398 132.722 106.73 137.865 105.736C143.007 104.741 147.597 103.483 151.465 101.961C155.334 100.446 158.518 98.7216 160.779 96.8574C161.905 95.9331 162.829 95.001 163.49 94.0844C163.668 93.8669 163.793 93.6261 163.94 93.4086C164.08 93.1911 164.22 92.9814 164.313 92.7639C164.422 92.5542 164.515 92.3445 164.616 92.1581C164.694 91.9561 164.756 91.7619 164.826 91.5833C164.973 91.226 165.028 90.892 165.09 90.6046C165.121 90.4648 165.152 90.3327 165.167 90.2084C165.175 90.0841 165.183 89.9754 165.191 89.8744C165.245 89.4938 165.261 89.2919 165.261 89.2919C165.261 89.2919 165.253 89.4938 165.229 89.89C165.222 89.9909 165.214 90.0997 165.206 90.224C165.191 90.3482 165.16 90.4803 165.129 90.6201C165.074 90.9075 165.02 91.2493 164.872 91.6066C164.81 91.7852 164.748 91.9872 164.67 92.1891C164.577 92.3833 164.476 92.5853 164.375 92.8028C164.282 93.0203 164.15 93.2377 164.002 93.4552C163.855 93.6727 163.73 93.9213 163.552 94.1388C162.899 95.0631 161.975 96.003 160.841 96.9351C158.58 98.8148 155.388 100.563 151.512 102.093C147.636 103.631 143.038 104.905 137.896 105.914C132.746 106.924 127.021 107.6 120.861 107.911C114.702 108.214 108.092 108.144 101.179 107.499C97.7221 107.173 94.1956 106.699 90.6226 106.031C87.0495 105.371 83.4376 104.501 79.8413 103.336C76.2605 102.155 72.6563 100.702 69.3551 98.5973C67.7162 97.5332 66.1316 96.3137 64.8578 94.7757C64.2208 94.0067 63.6771 93.1601 63.2654 92.2357C62.8848 91.3036 62.6595 90.3016 62.6362 89.2841C62.6518 88.2665 62.8848 87.2645 63.2654 86.3324C63.6771 85.4081 64.2208 84.5614 64.8578 83.7925C66.1316 82.2545 67.7162 81.035 69.3551 79.9786C72.6563 77.8736 76.2527 76.4211 79.8335 75.2404C83.4299 74.0753 87.0418 73.2053 90.6148 72.5451C94.1879 71.8771 97.7143 71.4033 101.163 71.0848C108.068 70.4401 114.679 70.3702 120.838 70.6731C126.998 70.9838 132.722 71.6596 137.872 72.6694C143.022 73.6792 147.613 74.953 151.489 76.491C155.365 78.0212 158.557 79.7611 160.818 81.6486C161.944 82.5885 162.868 83.5206 163.528 84.4449C163.707 84.6624 163.831 84.911 163.979 85.1285C164.119 85.346 164.251 85.5634 164.352 85.7809C164.453 85.9984 164.554 86.2004 164.647 86.3946C164.725 86.5965 164.787 86.7907 164.849 86.9771C164.989 87.3344 165.043 87.6762 165.105 87.9636C165.129 88.1112 165.167 88.2355 165.183 88.3598C165.191 88.484 165.198 88.5928 165.206 88.6938C165.261 89.0899 165.261 89.2919 165.261 89.2919Z" fill="#B6D6DA"/>
<path d="M146.541 46.8424C146.541 46.8424 146.37 46.7336 146.036 46.5161C145.95 46.4618 145.857 46.3996 145.756 46.3297C145.648 46.2676 145.523 46.2132 145.391 46.1511C145.127 46.0268 144.824 45.8637 144.451 45.7627C144.265 45.7083 144.078 45.6306 143.869 45.5763C143.659 45.5297 143.434 45.4908 143.201 45.4442C142.968 45.3898 142.719 45.3665 142.463 45.3432C142.207 45.3277 141.935 45.2733 141.655 45.2889C140.529 45.2423 139.232 45.4131 137.802 45.7316C134.944 46.3763 131.627 47.8366 128.062 49.9649C124.489 52.0932 120.675 54.9439 116.745 58.4004C112.806 61.857 108.775 65.966 104.767 70.642C100.767 75.3258 96.7821 80.5844 93.0693 86.4334C91.2128 89.3617 89.4341 92.4299 87.7796 95.6534C86.1173 98.8769 84.5949 102.256 83.321 105.798C82.0627 109.34 81.0141 113.06 80.6568 116.929C80.4937 118.855 80.4859 120.836 80.9131 122.746C81.1306 123.702 81.4568 124.634 81.9229 125.496C82.4122 126.343 83.0414 127.112 83.8104 127.733C84.6027 128.324 85.5037 128.743 86.4436 129.007C87.399 129.24 88.3777 129.326 89.3564 129.294C91.3138 129.232 93.2324 128.735 95.0577 128.098C98.7162 126.793 102.056 124.844 105.179 122.746C108.294 120.626 111.191 118.311 113.894 115.896C116.605 113.488 119.137 110.994 121.506 108.47C126.244 103.413 130.346 98.2477 133.888 93.1989C137.422 88.15 140.389 83.2254 142.758 78.5493C145.119 73.8733 146.937 69.4769 148.102 65.4844C149.275 61.4997 149.865 57.9188 149.772 54.9905C149.733 53.5302 149.562 52.233 149.244 51.1533C149.182 50.8737 149.065 50.6329 148.988 50.3843C148.902 50.1358 148.817 49.9028 148.708 49.693C148.607 49.4833 148.506 49.2736 148.413 49.0794C148.304 48.893 148.187 48.7221 148.087 48.5668C147.892 48.2328 147.667 47.9842 147.473 47.7589C147.38 47.6502 147.294 47.5414 147.209 47.456C147.116 47.3706 147.038 47.3007 146.96 47.2307C146.688 46.9822 146.541 46.8424 146.541 46.8424C146.541 46.8424 146.696 46.9744 146.991 47.2307C147.069 47.2929 147.147 47.3706 147.24 47.4482C147.325 47.5337 147.411 47.6424 147.512 47.7512C147.706 47.9764 147.939 48.225 148.133 48.559C148.234 48.7221 148.358 48.893 148.467 49.0794C148.56 49.2736 148.661 49.4756 148.77 49.693C148.887 49.9028 148.972 50.1358 149.057 50.3843C149.143 50.6329 149.259 50.8815 149.322 51.1533C149.656 52.2408 149.826 53.5457 149.873 55.006C149.974 57.9499 149.399 61.5385 148.234 65.5388C147.077 69.5468 145.267 73.9587 142.906 78.6425C140.544 83.3264 137.577 88.2665 134.051 93.3231C130.516 98.3798 126.415 103.561 121.669 108.625C119.3 111.157 116.76 113.651 114.049 116.066C111.338 118.482 108.433 120.805 105.311 122.933C102.181 125.046 98.8327 126.995 95.1432 128.316C93.3023 128.96 91.3682 129.465 89.3719 129.527C88.3777 129.559 87.3679 129.465 86.3892 129.232C85.4183 128.96 84.4862 128.533 83.6706 127.92C82.8783 127.283 82.2258 126.483 81.7287 125.613C81.2549 124.727 80.9209 123.772 80.6956 122.801C80.2606 120.851 80.2684 118.855 80.4315 116.913C80.7888 113.014 81.8452 109.278 83.1113 105.728C84.393 102.17 85.9232 98.7837 87.5854 95.5602C89.2476 92.3289 91.0342 89.253 92.8906 86.3246C96.619 80.4679 100.612 75.2093 104.627 70.5255C108.651 65.8495 112.69 61.7404 116.636 58.2917C120.582 54.8429 124.403 51.9922 128 49.8639C131.581 47.7356 134.913 46.2831 137.787 45.6539C139.216 45.3355 140.529 45.1801 141.663 45.2267C141.942 45.219 142.214 45.2733 142.478 45.2889C142.742 45.3122 142.991 45.3355 143.216 45.3976C143.449 45.4442 143.675 45.4908 143.884 45.5374C144.094 45.5996 144.28 45.6695 144.467 45.7316C144.84 45.8404 145.143 46.0035 145.407 46.1355C145.539 46.2054 145.663 46.2598 145.764 46.3219C145.865 46.3919 145.958 46.454 146.036 46.5084C146.378 46.7181 146.541 46.8424 146.541 46.8424Z" fill="#B6D6DA"/>
<path d="M62.2244 110.443C62.9701 111.188 62.9701 112.392 62.2244 113.13C61.4787 113.876 60.2747 113.876 59.5368 113.13C58.7911 112.385 58.7911 111.181 59.5368 110.443C60.2747 109.697 61.4865 109.697 62.2244 110.443Z" fill="#B6D6DA"/>
<path d="M169.595 51.4719C169.595 52.5205 168.74 53.3749 167.692 53.3749C166.643 53.3749 165.789 52.5205 165.789 51.4719C165.789 50.4232 166.643 49.5688 167.692 49.5688C168.74 49.5688 169.595 50.4232 169.595 51.4719Z" fill="#B6D6DA"/>
<path d="M74.2408 116.696C74.2408 116.96 74.0233 117.177 73.7592 117.177C73.4951 117.177 73.2776 116.96 73.2776 116.696C73.2776 116.432 73.4951 116.214 73.7592 116.214C74.0233 116.214 74.2408 116.432 74.2408 116.696Z" fill="#B6D6DA"/>
<path d="M84.564 63.3717C84.564 63.6358 84.3465 63.8533 84.0824 63.8533C83.8183 63.8533 83.6008 63.6358 83.6008 63.3717C83.6008 63.1076 83.8183 62.8901 84.0824 62.8901C84.3465 62.8901 84.564 63.1076 84.564 63.3717Z" fill="#B6D6DA"/>
<path d="M160.033 89.2918C160.033 89.5559 159.815 89.7734 159.551 89.7734C159.287 89.7734 159.07 89.5559 159.07 89.2918C159.07 89.0277 159.287 88.8103 159.551 88.8103C159.815 88.8103 160.033 89.0277 160.033 89.2918Z" fill="#B6D6DA"/>
<path d="M166.76 66.7427C166.76 67.0068 166.542 67.2243 166.278 67.2243C166.014 67.2243 165.796 67.0068 165.796 66.7427C165.796 66.4786 166.014 66.2611 166.278 66.2611C166.542 66.2611 166.76 66.4786 166.76 66.7427Z" fill="#B6D6DA"/>
<path d="M181.976 173.85H48.5924C44.5922 173.85 41.3531 170.611 41.3531 166.611V157.616C41.3531 153.616 44.5922 150.377 48.5924 150.377H181.976C185.976 150.377 189.215 153.616 189.215 157.616V166.611C189.215 170.611 185.976 173.85 181.976 173.85Z" fill="#F5F5F5"/>
<path d="M127.269 123.472C125.88 123.442 124.474 123.239 123.079 122.952C119.333 122.168 115.837 120.743 112.593 118.714C109.625 116.859 106.704 114.938 103.969 112.741C98.7201 108.528 94.0219 103.781 90.1675 98.2393C87.3725 94.2174 85.0144 89.956 83.5301 85.2638C82.764 82.8398 82.1595 80.356 82.2972 77.8004C82.5306 73.3176 83.9849 69.3316 87.4263 66.2613C88.5156 65.2917 89.7605 64.5436 91.1311 64.0528C91.6697 63.8613 92.2742 63.7595 92.8428 63.7775C93.7944 63.8074 94.7401 63.9511 95.6857 64.0767C96.8707 64.2383 97.7625 64.8727 98.2892 65.9321C98.6962 66.752 99.0134 67.6199 99.3186 68.4817C100.414 71.588 101.491 74.7062 102.574 77.8184C102.91 78.788 103.059 79.7755 102.808 80.7929C102.658 81.3855 102.341 81.8703 101.904 82.2952C100.659 83.5102 99.4263 84.7311 98.2054 85.97C97.7446 86.4368 97.4393 87.0054 97.3914 87.6698C97.3675 87.9929 97.3914 88.364 97.5231 88.6513C98.3071 90.3151 99.175 91.9311 100.21 93.4633C103.287 98.0179 107.123 101.818 111.63 104.937C113.174 106.008 114.82 106.93 116.424 107.917C117.537 108.605 118.602 108.42 119.566 107.63C120.135 107.163 120.649 106.624 121.176 106.104C121.774 105.511 122.373 104.919 122.93 104.296C124.151 102.938 125.623 102.471 127.365 103.033C129.352 103.674 131.315 104.368 133.29 105.038C135.169 105.679 137.048 106.313 138.922 106.96C140.52 107.504 141.483 108.593 141.711 110.287C141.794 110.922 141.872 111.556 141.938 112.19C142.094 113.711 141.693 115.093 140.897 116.386C138.993 119.48 136.264 121.485 132.835 122.58C131.081 123.137 129.639 123.353 127.269 123.472Z" fill="#2F3E46"/>
<path d="M106.01 59.0912C115.34 59.5101 123.887 62.5087 131.374 68.38C136.156 72.1326 139.945 76.7171 142.68 82.1516C144.775 86.3052 146.122 90.6922 146.612 95.3246C146.768 96.8149 146.816 98.3231 146.876 99.8194C146.912 100.711 146.205 101.375 145.296 101.375C144.362 101.381 143.668 100.723 143.662 99.8194C143.62 93.4752 142.07 87.5321 138.951 82.0019C136.438 77.5371 133.134 73.7486 129.094 70.6004C124.067 66.6862 118.417 64.1366 112.174 62.8917C109.571 62.377 106.943 62.1256 104.286 62.1136C103.514 62.1077 102.88 61.6827 102.682 61.0184C102.407 60.1206 103.017 59.181 103.981 59.0912C104.597 59.0433 105.232 59.0912 106.01 59.0912Z" fill="#2F3E46"/>
<path d="M109.834 68.8707C115.035 69.0862 119.871 70.5106 124.252 73.3296C129.429 76.6573 133.134 81.1939 135.187 87.0293C136.133 89.7106 136.593 92.4697 136.599 95.3126C136.599 96.2762 135.923 96.9585 134.983 96.9525C134.05 96.9466 133.391 96.2762 133.379 95.3306C133.272 89.0822 131.009 83.7196 126.622 79.2847C122.373 74.9874 117.166 72.6413 111.169 72.0428C110.421 71.971 109.667 71.965 108.919 71.9411C108.242 71.9171 107.686 71.6777 107.374 71.0493C106.878 70.0438 107.62 68.9186 108.793 68.8767C109.134 68.8588 109.487 68.8707 109.834 68.8707Z" fill="#2F3E46"/>
<path d="M126.82 92.4578C126.82 92.6613 126.826 92.8588 126.82 93.0623C126.802 93.96 126.126 94.6244 125.222 94.6304C124.294 94.6363 123.594 93.99 123.582 93.0802C123.534 89.8603 122.349 87.1132 120.069 84.8568C117.908 82.7201 115.275 81.559 112.246 81.3017C111.899 81.2718 111.552 81.2598 111.205 81.2478C110.313 81.2299 109.613 80.5954 109.589 79.7695C109.559 78.9436 110.205 78.1895 111.103 78.2194C112.282 78.2553 113.485 78.3271 114.634 78.5785C119.075 79.5361 122.517 81.966 124.857 85.8862C126.072 87.8972 126.7 90.1057 126.82 92.4578Z" fill="#2F3E46"/>
</svg>
