<svg width="24" height="24" viewBox="0 0 24 24" fill="none" xmlns="http://www.w3.org/2000/svg">
<circle cx="12" cy="12" r="12" fill="#263238"/>
<g clip-path="url(#clip0_1_531)">
<path d="M13.173 7.43736L12.727 6.96041C12.5382 6.75846 12.2328 6.75846 12.046 6.96041L8.14063 11.1348C7.95179 11.3368 7.95179 11.6633 8.14063 11.8631L12.046 16.0397C12.2348 16.2417 12.5402 16.2417 12.727 16.0397L13.173 15.5628C13.3638 15.3587 13.3598 15.0256 13.165 14.8258L10.7442 12.3594H16.5179C16.785 12.3594 17 12.1296 17 11.8438V11.1563C17 10.8706 16.785 10.6407 16.5179 10.6407H10.7442L13.165 8.17428C13.3618 7.97447 13.3658 7.64146 13.173 7.43736Z" fill="white"/>
</g>
<defs>
<clipPath id="clip0_1_531">
<rect width="9" height="11" fill="white" transform="matrix(-1 0 0 1 17 6)"/>
</clipPath>
</defs>
</svg>
