<svg width="16" height="18" viewBox="0 0 16 18" fill="none" xmlns="http://www.w3.org/2000/svg">
<path d="M13.9062 2.25H14.75C15.0594 2.25 15.3125 2.50312 15.3125 2.8125V5.0625C15.3125 5.37188 15.0594 5.625 14.75 5.625H13.9062" stroke="#263238"/>
<path d="M13.9062 7.03125H14.75C15.0594 7.03125 15.3125 7.28437 15.3125 7.59375V9.84375C15.3125 10.1531 15.0594 10.4062 14.75 10.4062H13.9062" stroke="#263238"/>
<path d="M13.9062 11.8125H14.75C15.0594 11.8125 15.3125 12.0656 15.3125 12.375V14.625C15.3125 14.9344 15.0594 15.1875 14.75 15.1875H13.9062" stroke="#263238"/>
<path d="M0.6875 0.84375C0.6875 0.534375 0.940625 0.28125 1.25 0.28125H13.625C13.9344 0.28125 14.1875 0.534375 14.1875 0.84375V17.1562C14.1875 17.4656 13.9344 17.7188 13.625 17.7188H1.25C0.940625 17.7188 0.6875 17.4656 0.6875 17.1562V0.84375Z" stroke="#263238"/>
<path d="M2.375 1.125V16.875" stroke="#263238"/>
<path d="M6.5373 10.9688C6.90293 10.8 7.40918 10.4906 7.40918 10.2094C7.40918 10.0687 7.35293 9.95625 7.29668 9.92812C6.59355 9.53437 6.48105 8.29688 6.4248 8.29688C6.1998 8.29688 6.03105 7.70625 6.03105 7.34063C6.03105 7.03125 6.11543 7.03125 6.28418 6.94688V6.89062C6.28418 5.87813 6.93105 5.0625 7.97168 5.0625C9.0123 5.0625 9.74356 5.90625 9.74356 6.91875V6.975C9.91231 7.05937 9.96855 7.11562 9.96855 7.425C9.96855 7.81875 9.82793 8.35313 9.60293 8.35313C9.54668 8.35313 9.37793 9.5625 8.70293 9.95625C8.64668 9.98438 8.59043 10.0406 8.59043 10.1813C8.59043 10.5188 9.1248 10.8 9.49043 10.9688C9.94043 11.1938 11.9373 11.3906 11.9373 13.5H4.03418C4.03418 11.3906 5.9748 11.25 6.5373 10.9688Z" stroke="#263238"/>
</svg>
