<svg width="25" height="25" viewBox="0 0 25 25" fill="none" xmlns="http://www.w3.org/2000/svg">
<path d="M15.0466 10.2768L10.0055 15.3178C9.35797 14.6702 8.95947 13.7836 8.95947 12.7973C8.95947 10.8247 10.5535 9.23071 12.526 9.23071C13.5123 9.23071 14.399 9.62921 15.0466 10.2768Z" stroke="#797979" stroke-width="1.49438" stroke-linecap="round" stroke-linejoin="round"/>
<path d="M18.3238 6.59046C16.5804 5.27541 14.5879 4.55811 12.5257 4.55811C9.00889 4.55811 5.73123 6.63031 3.44981 10.2168C2.55319 11.6215 2.55319 13.9826 3.44981 15.3873C4.23685 16.6227 5.1534 17.6887 6.14965 18.5455" stroke="#797979" stroke-width="1.49438" stroke-linecap="round" stroke-linejoin="round"/>
<path d="M8.95947 20.2991C10.0952 20.7773 11.3007 21.0363 12.526 21.0363C16.0428 21.0363 19.3205 18.9641 21.6019 15.3776C22.4985 13.9729 22.4985 11.6118 21.6019 10.207C21.2731 9.68899 20.9145 9.20083 20.5459 8.74255" stroke="#797979" stroke-width="1.49438" stroke-linecap="round" stroke-linejoin="round"/>
<path d="M16.0233 13.4952C15.7643 14.9 14.6186 16.0456 13.2139 16.3047" stroke="#797979" stroke-width="1.49438" stroke-linecap="round" stroke-linejoin="round"/>
<path d="M10.006 15.318L2.56396 22.76" stroke="#797979" stroke-width="1.49438" stroke-linecap="round" stroke-linejoin="round"/>
<path d="M22.4889 2.83521L15.0469 10.2772" stroke="#797979" stroke-width="1.49438" stroke-linecap="round" stroke-linejoin="round"/>
</svg>
