<svg width="25" height="25" viewBox="0 0 25 25" fill="none" xmlns="http://www.w3.org/2000/svg">
<path d="M15.0466 10.2768L10.0055 15.3178C9.35797 14.6703 8.95947 13.7836 8.95947 12.7973C8.95947 10.8248 10.5535 9.23076 12.526 9.23076C13.5123 9.23076 14.399 9.62926 15.0466 10.2768Z" stroke="#797979" stroke-width="1.49438" stroke-linecap="round" stroke-linejoin="round"/>
<path d="M18.3236 6.59049C16.5801 5.27544 14.5876 4.55814 12.5254 4.55814C9.00864 4.55814 5.73098 6.63034 3.44957 10.2168C2.55294 11.6216 2.55294 13.9827 3.44957 15.3874C4.23661 16.6227 5.15316 17.6887 6.14941 18.5455" stroke="#797979" stroke-width="1.49438" stroke-linecap="round" stroke-linejoin="round"/>
<path d="M8.95923 20.299C10.095 20.7772 11.3004 21.0363 12.5258 21.0363C16.0426 21.0363 19.3202 18.9641 21.6016 15.3776C22.4983 13.9728 22.4983 11.6117 21.6016 10.207C21.2729 9.68896 20.9142 9.2008 20.5456 8.74252" stroke="#797979" stroke-width="1.49438" stroke-linecap="round" stroke-linejoin="round"/>
<path d="M16.0233 13.4953C15.7643 14.9 14.6186 16.0457 13.2139 16.3047" stroke="#797979" stroke-width="1.49438" stroke-linecap="round" stroke-linejoin="round"/>
</svg>
