<svg width="27" height="23" viewBox="0 0 27 23" fill="none" xmlns="http://www.w3.org/2000/svg">
<path d="M18.9296 13.9977C19.158 13.8967 19.3744 13.7965 19.5943 13.7039C20.8005 13.1943 22.0016 12.6712 23.218 12.1854C23.7647 11.9672 24.3555 11.912 24.9378 12.0275C26.2196 12.2822 26.8918 13.6342 26.3409 14.8325C25.9989 15.5765 25.4072 16.0835 24.7078 16.4674C23.1221 17.3378 21.5382 18.2109 19.9372 19.0525C18.8609 19.6181 17.7548 20.1251 16.6666 20.6686C14.9715 21.5145 13.1795 21.669 11.3426 21.3778C10.1432 21.1875 8.95821 20.9047 7.76133 20.689C7.04829 20.5608 6.32847 20.5574 5.62393 20.7748C5.10019 20.9361 4.66982 21.2138 4.39479 21.7098C4.22587 22.0147 3.94066 22.0809 3.63762 21.9009C3.16821 21.6215 2.84989 21.2003 2.59693 20.7272C1.97387 19.5612 1.70734 18.2916 1.50276 17.0007C1.23538 15.3141 1.37459 13.6665 1.92634 12.0521C2.08762 11.5799 2.24296 11.4737 2.7319 11.5697C3.40588 11.7013 4.07817 11.8491 4.74452 12.0139C4.95928 12.0674 5.11547 12.0444 5.29882 11.9179C6.78006 10.8954 8.43701 10.4478 10.2196 10.5599C10.8282 10.5982 11.4394 10.8122 12.02 11.0262C12.9096 11.3531 13.8051 11.5111 14.7541 11.4551C15.4061 11.416 16.0733 11.3956 16.715 11.4916C18.0188 11.6869 18.7794 12.5684 18.894 13.8788C18.8965 13.9069 18.9101 13.9349 18.9296 13.9977ZM3.79041 20.6695C4.19956 20.4139 4.56202 20.1319 4.96861 19.9451C5.89471 19.5179 6.88362 19.5085 7.86574 19.6792C9.04224 19.8839 10.206 20.165 11.3842 20.362C13.0819 20.6457 14.7363 20.5166 16.3025 19.72C17.5935 19.0635 18.9067 18.4478 20.1902 17.7761C21.5398 17.0703 22.8785 16.3408 24.195 15.5748C24.6127 15.3319 24.9785 14.9684 25.3003 14.6007C25.5693 14.2941 25.6254 13.8865 25.4038 13.5009C25.178 13.1086 24.8079 12.9633 24.3784 13.0041C24.055 13.0355 23.7163 13.0763 23.4192 13.1977C22.2257 13.6844 21.0407 14.1931 19.8617 14.7145C18.6054 15.2699 17.3762 15.8933 16.1021 16.4028C14.9333 16.8699 13.7245 16.8759 12.5463 16.3612C12.1711 16.1973 12.0344 15.9442 12.1507 15.6461C12.2645 15.3565 12.5565 15.2674 12.9274 15.4219C13.4342 15.6334 13.9596 15.7302 14.508 15.6979C15.541 15.6368 16.451 15.2173 17.3228 14.7069C17.5053 14.5999 17.6716 14.4122 17.7676 14.2228C17.855 14.0495 17.9034 13.8066 17.855 13.6241C17.7056 13.0542 17.3482 12.6313 16.7472 12.5251C16.3135 12.4487 15.8636 12.4241 15.423 12.4393C14.5445 12.4708 13.6659 12.5498 12.8009 12.3255C12.4538 12.2355 12.1023 12.1438 11.7738 12.0028C9.76801 11.1425 7.88271 11.5502 6.11626 12.627C5.48387 13.0126 4.94654 13.202 4.23691 12.9294C3.79381 12.7595 3.30232 12.7137 2.84225 12.6134C2.01292 14.9251 2.56128 19.3387 3.79041 20.6695Z" fill="#797979" stroke="#797979" stroke-width="0.2"/>
<path d="M13.3141 0.368908C16.7138 0.368908 20.1134 0.368908 23.5139 0.368908C24.7634 0.368908 25.4832 1.08908 25.4841 2.34003C25.4849 3.75998 25.4858 5.17994 25.4841 6.60074C25.4824 7.76422 24.7396 8.50732 23.5767 8.50817C16.7138 8.50902 9.85081 8.50902 2.98702 8.50817C1.82409 8.50817 1.08305 7.76422 1.08135 6.59989C1.07965 5.1587 1.07965 3.71752 1.08135 2.27548C1.08305 1.11116 1.82494 0.369757 2.98872 0.368908C6.42995 0.368058 9.87203 0.368908 13.3141 0.368908ZM13.2836 7.49076C16.6925 7.49076 20.1015 7.49076 23.5105 7.49076C24.1981 7.49076 24.4663 7.21985 24.4663 6.52601C24.4671 5.11709 24.468 3.70818 24.4663 2.29926C24.4654 1.67166 24.1819 1.38716 23.5546 1.38631C16.7044 1.38547 9.85506 1.38547 3.00484 1.38631C2.38094 1.38631 2.09742 1.67251 2.09742 2.30266C2.09573 3.70138 2.09657 5.09926 2.09742 6.49798C2.09742 7.23428 2.35378 7.49076 3.08803 7.49076C6.48682 7.49076 9.88477 7.49076 13.2836 7.49076Z" fill="#797979" stroke="#797979" stroke-width="0.2"/>
<path d="M5.65507 5.11282C5.42248 5.3625 5.24422 5.57056 5.04814 5.76165C4.79264 6.01133 4.50488 6.02576 4.28927 5.8177C4.06517 5.60114 4.08385 5.30729 4.3419 5.03468C4.43612 4.93532 4.53374 4.83766 4.63305 4.74254C4.72473 4.65507 4.8215 4.57269 4.94628 4.46059C4.74086 4.24997 4.5592 4.06568 4.37925 3.8797C4.1178 3.60878 4.09064 3.31494 4.3054 3.09583C4.52016 2.87673 4.82659 2.89286 5.08804 3.15443C5.26714 3.33278 5.42927 3.52811 5.67204 3.79562C5.88086 3.55104 6.04044 3.34212 6.22295 3.15613C6.48185 2.89201 6.78998 2.87673 7.00474 3.09583C7.2178 3.31409 7.19488 3.61388 6.93089 3.8797C6.75348 4.05804 6.56334 4.22449 6.34179 4.43001C6.57097 4.64997 6.76536 4.82577 6.94786 5.01345C7.19318 5.26568 7.21271 5.56122 7.01068 5.77523C6.80101 5.99774 6.48694 5.9833 6.22804 5.72768C6.04808 5.54933 5.88171 5.3574 5.65507 5.11282Z" fill="#797979" stroke="#797979" stroke-width="0.2"/>
<path d="M10.8015 3.71159C10.973 3.5222 11.1419 3.31838 11.3287 3.13409C11.574 2.89206 11.8804 2.88356 12.0884 3.09503C12.2955 3.30649 12.2828 3.60713 12.0391 3.85681C11.8558 4.0445 11.658 4.21774 11.428 4.43345C11.6555 4.65086 11.8498 4.82581 12.0324 5.0135C12.2853 5.27337 12.2972 5.58929 12.0739 5.79821C11.8583 5.99948 11.5655 5.97825 11.3134 5.72942C11.1334 5.55107 10.967 5.35914 10.7667 5.14513C10.5443 5.36339 10.3525 5.55447 10.1581 5.74131C9.88222 6.00627 9.59785 6.0326 9.3746 5.81944C9.14287 5.59693 9.16664 5.29885 9.4493 5.01519C9.62756 4.83515 9.81855 4.667 10.0333 4.46488C9.82619 4.25256 9.64454 4.06827 9.46458 3.88229C9.20314 3.61138 9.17512 3.31753 9.38903 3.09843C9.60294 2.87847 9.90598 2.89885 10.1734 3.15363C10.3491 3.32178 10.5214 3.49333 10.6954 3.66318C10.7014 3.66828 10.7132 3.67082 10.8015 3.71159Z" fill="#797979" stroke="#797979" stroke-width="0.2"/>
<path d="M15.8222 3.77951C16.0352 3.54172 16.1846 3.36338 16.3468 3.19777C16.6439 2.89629 16.9478 2.86317 17.1744 3.09671C17.3985 3.32856 17.3594 3.62325 17.0539 3.92643C16.89 4.08864 16.7152 4.23981 16.5114 4.42665C16.7423 4.65 16.9359 4.82664 17.1175 5.01433C17.362 5.26656 17.3807 5.56295 17.1769 5.77611C16.9656 5.99777 16.6541 5.98333 16.3943 5.72516C16.2144 5.54681 16.0497 5.35403 15.7865 5.06783C15.5896 5.31242 15.4394 5.52813 15.2585 5.71666C14.9767 6.01135 14.6839 6.03683 14.4555 5.81518C14.2263 5.59182 14.251 5.29543 14.5345 5.01093C14.7136 4.83174 14.9046 4.66359 15.1185 4.46486C14.9088 4.25 14.7263 4.06486 14.5464 3.87803C14.2858 3.60796 14.2603 3.31242 14.4751 3.09416C14.6907 2.87591 14.9954 2.89374 15.2577 3.15531C15.436 3.3345 15.5972 3.52983 15.8222 3.77951Z" fill="#797979" stroke="#797979" stroke-width="0.2"/>
<path d="M20.8701 3.78121C21.1197 3.52134 21.2963 3.32771 21.4839 3.14512C21.736 2.89884 22.0305 2.8793 22.2444 3.08312C22.466 3.29459 22.4524 3.60627 22.196 3.86699C22.0186 4.04788 21.8259 4.21348 21.5399 4.4793C21.781 4.67293 21.9983 4.82325 22.1859 5.00329C22.4541 5.26061 22.4694 5.56974 22.2538 5.78545C22.0373 6.00201 21.7334 5.98163 21.4711 5.71751C21.2937 5.53832 21.1341 5.34129 20.9253 5.1052C20.6893 5.35573 20.5085 5.55955 20.3141 5.74978C20.0451 6.0139 19.7497 6.03004 19.5324 5.80753C19.3159 5.58588 19.3414 5.29883 19.6045 5.02452C19.7802 4.84193 19.9585 4.66104 20.135 4.4793C20.1418 4.4725 20.1427 4.46062 20.2165 4.38248C20.0782 4.27123 19.9296 4.17102 19.8031 4.04788C19.3702 3.62325 19.3049 3.34045 19.568 3.08567C19.8261 2.83514 20.1002 2.90393 20.5298 3.343C20.646 3.46274 20.7369 3.60796 20.8701 3.78121Z" fill="#797979" stroke="#797979" stroke-width="0.2"/>
</svg>
