<svg width="25" height="25" viewBox="0 0 25 25" fill="none" xmlns="http://www.w3.org/2000/svg">
<path d="M6.92139 10.8052V8.81271C6.92139 5.51512 7.91764 2.83521 12.8989 2.83521C17.8801 2.83521 18.8764 5.51512 18.8764 8.81271V10.8052" stroke="#797979" stroke-width="1.49438" stroke-linecap="round" stroke-linejoin="round"/>
<path d="M12.8983 19.2734C14.2739 19.2734 15.389 18.1583 15.389 16.7827C15.389 15.4072 14.2739 14.2921 12.8983 14.2921C11.5228 14.2921 10.4077 15.4072 10.4077 16.7827C10.4077 18.1583 11.5228 19.2734 12.8983 19.2734Z" stroke="#797979" stroke-width="1.49438" stroke-linecap="round" stroke-linejoin="round"/>
<path d="M17.8793 22.7599H7.9168C3.9318 22.7599 2.93555 21.7637 2.93555 17.7787V15.7862C2.93555 11.8012 3.9318 10.8049 7.9168 10.8049H17.8793C21.8643 10.8049 22.8606 11.8012 22.8606 15.7862V17.7787C22.8606 21.7637 21.8643 22.7599 17.8793 22.7599Z" stroke="#797979" stroke-width="1.49438" stroke-linecap="round" stroke-linejoin="round"/>
</svg>
