<svg width="22" height="22" viewBox="0 0 22 22" fill="none" xmlns="http://www.w3.org/2000/svg">
<path d="M15.5774 20.7454L15.5506 20.7448C15.0719 20.7345 14.6003 20.6648 14.153 20.5727L14.1507 20.5722C12.9329 20.3174 11.7971 19.8541 10.7464 19.197C9.84385 18.6329 8.93376 18.0353 8.07449 17.3453L15.5774 20.7454ZM15.5774 20.7454L15.6042 20.7441M15.5774 20.7454L15.6042 20.7441M15.6042 20.7441C16.3586 20.706 16.8614 20.6345 17.4704 20.4412L17.4717 20.4408C18.6607 20.0611 19.6354 19.3513 20.3106 18.2536C20.6203 17.7505 20.7976 17.1718 20.7312 16.5224L20.731 16.5214C20.7103 16.3211 20.6859 16.1225 20.66 15.9268L20.6598 15.9252C20.6093 15.5489 20.47 15.2004 20.2237 14.9104C19.9794 14.6228 19.6639 14.433 19.3221 14.3163M15.6042 20.7441L19.9214 16.0244M3.76752 12.8171L3.76737 12.8168C2.89678 11.5641 2.14428 10.2115 1.66739 8.70394L1.66733 8.70376C1.42923 7.95043 1.21319 7.09738 1.26196 6.18946C1.34008 4.69171 1.83573 3.2828 3.05662 2.19361L3.05726 2.19304C3.45488 1.83913 3.91263 1.56338 4.41856 1.38223L4.42013 1.38167L4.42013 1.38167C4.66394 1.29499 4.93865 1.24745 5.20927 1.25598L3.76752 12.8171ZM3.76752 12.8171C4.97838 14.558 6.44801 16.0397 8.07437 17.3452L3.76752 12.8171ZM6.14375 1.35267L6.14375 1.35268C6.74162 1.4342 7.22482 1.7747 7.49525 2.3186L7.49546 2.31904C7.64029 2.61081 7.74891 2.91085 7.84082 3.17033L7.84116 3.1713C8.08378 3.85935 8.32372 4.55 8.56292 5.23855C8.64999 5.48917 8.73696 5.73952 8.82393 5.98936L8.82445 5.99087C8.95373 6.36483 9.03585 6.81658 8.91397 7.30987L8.91305 7.3136L8.91304 7.31359C8.82756 7.65209 8.64704 7.91441 8.43808 8.11777C8.06539 8.48148 7.69732 8.84598 7.3335 9.21513L7.33305 9.21558C7.31609 9.23277 7.30758 9.2452 7.30369 9.25185C7.5202 9.70522 7.75382 10.1336 8.02473 10.5344L8.02483 10.5346C8.89787 11.8271 9.98766 12.9079 11.2748 13.7984L11.2756 13.7989C11.5796 14.0099 11.8854 14.1929 12.2149 14.39C12.3665 14.4807 12.5232 14.5745 12.687 14.6754L12.6882 14.6761C12.6976 14.6819 12.7052 14.6859 12.7109 14.6887C12.723 14.6825 12.743 14.6704 12.7712 14.6473C12.879 14.5588 12.9752 14.4628 13.0994 14.3388C13.1326 14.3057 13.1678 14.2706 13.2057 14.2332C13.3888 14.0519 13.5528 13.8892 13.7029 13.7213L13.7041 13.72C13.9596 13.4357 14.2758 13.2075 14.6586 13.0954C15.0452 12.9822 15.4415 13.0045 15.8245 13.1283M6.14375 1.35267L16.8269 14.2516C17.0118 14.3152 17.1968 14.3788 17.3822 14.4417C17.5519 14.4996 17.7217 14.5573 17.8914 14.6149C18.2882 14.7498 18.6848 14.8845 19.0804 15.021M6.14375 1.35267L6.14125 1.35234M6.14375 1.35267L6.14125 1.35234M15.8245 13.1283L15.5955 13.8372L15.824 13.1281C15.8242 13.1282 15.8243 13.1282 15.8245 13.1283ZM15.8245 13.1283C16.2441 13.2635 16.6647 13.4081 17.0774 13.5499C17.2606 13.6129 17.4423 13.6754 17.6216 13.7363L17.6225 13.7366C17.7909 13.7939 17.9598 13.8513 18.1291 13.9088C18.5263 14.0438 18.9251 14.1793 19.3221 14.3163M19.3221 14.3163C19.3217 14.3162 19.3212 14.316 19.3208 14.3159L19.0804 15.021M19.3221 14.3163C19.3226 14.3165 19.323 14.3166 19.3234 14.3168L19.0804 15.021M19.0804 15.021C19.5623 15.1852 19.8529 15.5137 19.9214 16.0244M19.9214 16.0244C19.9467 16.2157 19.9702 16.407 19.99 16.5983C20.0369 17.0566 19.916 17.4735 19.676 17.8633L19.9214 16.0244ZM6.14125 1.35234C6.106 1.34765 6.06953 1.34269 6.03199 1.33758M6.14125 1.35234L6.03199 1.33758M6.03199 1.33758C5.78817 1.30441 5.49923 1.26511 5.20936 1.25598L6.03199 1.33758Z" stroke="#797979" stroke-width="1.49"/>
</svg>
