<svg width="14" height="14" viewBox="0 0 14 14" fill="none" xmlns="http://www.w3.org/2000/svg">
<path d="M6.0279 1.1098L6.6721 0.459412C6.94487 0.184021 7.38594 0.184021 7.6558 0.459412L13.2969 6.15179C13.5696 6.42719 13.5696 6.8725 13.2969 7.14496L7.6558 12.8403C7.38304 13.1157 6.94196 13.1157 6.6721 12.8403L6.0279 12.1899C5.75223 11.9116 5.75804 11.4575 6.03951 11.185L9.53616 7.82172H1.19643C0.810491 7.82172 0.5 7.50824 0.5 7.11859V6.18109C0.5 5.79144 0.810491 5.47797 1.19643 5.47797H9.53616L6.03951 2.11469C5.75513 1.84222 5.74933 1.38812 6.0279 1.1098Z" fill="white"/>
</svg>
