<svg width="13" height="14" viewBox="0 0 13 14" fill="none" xmlns="http://www.w3.org/2000/svg">
<path d="M5.5279 1.46002L6.1721 0.809631C6.44487 0.534241 6.88594 0.534241 7.1558 0.809631L12.7969 6.50201C13.0696 6.77741 13.0696 7.22272 12.7969 7.49518L7.1558 13.1905C6.88304 13.4659 6.44196 13.4659 6.1721 13.1905L5.5279 12.5401C5.25223 12.2618 5.25804 11.8077 5.53951 11.5352L9.03616 8.17194H0.696429C0.310491 8.17194 0 7.85846 0 7.46881V6.53131C0 6.14166 0.310491 5.82819 0.696429 5.82819H9.03616L5.53951 2.4649C5.25513 2.19244 5.24933 1.73834 5.5279 1.46002Z" fill="white"/>
</svg>
