<svg width="20" height="20" viewBox="0 0 20 20" fill="none" xmlns="http://www.w3.org/2000/svg">
<path fill-rule="evenodd" clip-rule="evenodd" d="M3.33366 4.16675C3.33366 3.70651 3.70676 3.33341 4.16699 3.33341H9.30999C9.53099 3.33341 9.74291 3.42121 9.89924 3.57749L16.5659 10.2442C16.8913 10.5696 16.8913 11.0972 16.5659 11.4227L11.4229 16.5657C11.0975 16.8911 10.5698 16.8911 10.2444 16.5657L3.57773 9.899C3.42146 9.74266 3.33366 9.53075 3.33366 9.30975V4.16675ZM4.16699 1.66675C2.78628 1.66675 1.66699 2.78604 1.66699 4.16675V9.30975C1.66699 9.97275 1.93038 10.6087 2.39923 11.0775L9.06591 17.7442C10.0422 18.7205 11.6251 18.7205 12.6014 17.7442L17.7444 12.6012C18.7207 11.6248 18.7207 10.042 17.7444 9.06566L11.0777 2.39898C10.6089 1.93014 9.97299 1.66675 9.30999 1.66675H4.16699ZM6.66699 8.33341C7.58747 8.33341 8.33366 7.58722 8.33366 6.66675C8.33366 5.74627 7.58747 5.00008 6.66699 5.00008C5.74652 5.00008 5.00033 5.74627 5.00033 6.66675C5.00033 7.58722 5.74652 8.33341 6.66699 8.33341Z" fill="#263238"/>
</svg>
