<svg width="16" height="18" viewBox="0 0 16 18" fill="none" xmlns="http://www.w3.org/2000/svg">
<path d="M13.2212 2.15655H10.4194C10.2796 0.94457 9.24844 0 7.99956 0C6.75072 0 5.7197 0.944533 5.57993 2.15655H2.77794C1.64405 2.15655 0.72168 3.07918 0.72168 4.21303V4.31855C0.72168 5.18502 1.2612 5.92666 2.02123 6.22884V15.9435C2.02123 17.0774 2.94371 18 4.07752 18H11.9217C13.0555 18 13.9779 17.0773 13.9779 15.9435V6.22888C14.7379 5.92666 15.2775 5.18502 15.2775 4.31858V4.21307C15.2775 3.07918 14.355 2.15655 13.2212 2.15655ZM7.99956 0.975277C8.70986 0.975277 9.30273 1.48439 9.43392 2.15655H6.56547C6.69662 1.48435 7.28953 0.975277 7.99956 0.975277ZM13.0027 15.9435C13.0027 16.5397 12.5176 17.0248 11.9216 17.0248H4.07749C3.48151 17.0248 2.99647 16.5396 2.99647 15.9435V6.37503H13.0027V15.9435ZM14.3022 4.31855C14.3022 4.91471 13.8172 5.39979 13.2212 5.39979H2.77794C2.18197 5.39979 1.69692 4.91471 1.69692 4.31855V4.21303C1.69692 3.61687 2.18197 3.13179 2.77794 3.13179H13.2212C13.8172 3.13179 14.3022 3.61687 14.3022 4.21303L14.3022 4.31855Z" fill="#263238" stroke="#263238" stroke-width="0.3"/>
<path d="M5.38508 15.7775C5.65439 15.7775 5.8727 15.5591 5.8727 15.2899V9.79942C5.8727 9.53019 5.65436 9.31177 5.38508 9.31177C5.11581 9.31177 4.89746 9.53019 4.89746 9.79942V15.2899C4.89742 15.5592 5.11577 15.7775 5.38508 15.7775Z" fill="#263238" stroke="#263238" stroke-width="0.3"/>
<path d="M7.99934 15.7775C8.26865 15.7775 8.487 15.5591 8.487 15.2899V9.79942C8.487 9.53019 8.26858 9.31177 7.99934 9.31177C7.73006 9.31177 7.51172 9.53019 7.51172 9.79942V15.2899C7.51172 15.5592 7.73003 15.7775 7.99934 15.7775Z" fill="#263238" stroke="#263238" stroke-width="0.3"/>
<path d="M10.6136 15.7775C10.8829 15.7775 11.1012 15.5591 11.1012 15.2899V9.79942C11.1012 9.53019 10.8829 9.31177 10.6136 9.31177C10.3443 9.31177 10.126 9.53019 10.126 9.79942V15.2899C10.1259 15.5592 10.3444 15.7775 10.6136 15.7775Z" fill="#263238" stroke="#263238" stroke-width="0.3"/>
</svg>
