<svg width="24" height="30" viewBox="0 0 24 30" fill="none" xmlns="http://www.w3.org/2000/svg">
<path d="M23.2493 10.2326C23.1184 10.3162 20.0007 12.0797 20.0007 15.9897C20.1476 20.4489 23.935 22.0127 24 22.0127C23.935 22.0963 23.4282 24.143 21.9269 26.2885C20.7354 28.1367 19.4129 30 17.4048 30C15.4946 30 14.8089 28.7683 12.6048 28.7683C10.2378 28.7683 9.56802 30 7.75577 30C5.7476 30 4.32719 28.0368 3.07075 26.206C1.43845 23.8099 0.0510477 20.0496 0.00206801 16.439C-0.0309401 14.5258 0.328954 12.6451 1.24253 11.0476C2.53198 8.81747 4.83402 7.30357 7.34796 7.25365C9.27414 7.18746 10.9884 8.60151 12.1639 8.60151C13.2905 8.60151 15.3966 7.25365 17.7796 7.25365C18.8081 7.25474 21.551 7.57054 23.2493 10.2326ZM12.001 6.87165C11.6582 5.12444 12.6048 3.37722 13.4864 2.2627C14.6129 0.914846 16.3922 0 17.9265 0C18.0245 1.74721 17.4037 3.46079 16.2942 4.7088C15.2986 6.05665 13.5844 7.07134 12.001 6.87165Z" fill="black"/>
</svg>
