<svg width="20" height="24" viewBox="0 0 20 24" fill="none" xmlns="http://www.w3.org/2000/svg">
<path d="M19.3744 8.18608C19.2653 8.25293 16.6672 9.66372 16.6672 12.7918C16.7897 16.3591 19.9459 17.6102 20 17.6102C19.9459 17.677 19.5235 19.3144 18.2724 21.0308C17.2795 22.5093 16.1775 24 14.504 24C12.9121 24 12.3407 23.0146 10.504 23.0146C8.53147 23.0146 7.97335 24 6.46314 24C4.78967 24 3.60599 22.4295 2.55896 20.9648C1.19871 19.0479 0.0425398 16.0396 0.00172334 13.1512C-0.0257834 11.6206 0.274128 10.116 1.03544 8.83808C2.10998 7.05397 4.02835 5.84286 6.1233 5.80292C7.72845 5.74996 9.15703 6.8812 10.1366 6.8812C11.0754 6.8812 12.8305 5.80292 14.8163 5.80292C15.6735 5.80379 17.9592 6.05643 19.3744 8.18608ZM10.0009 5.49732C9.71515 4.09955 10.504 2.70178 11.2387 1.81016C12.1774 0.731877 13.6601 0 14.9388 0C15.0204 1.39777 14.5031 2.76863 13.5785 3.76704C12.7489 4.84532 11.3203 5.65707 10.0009 5.49732Z" fill="black"/>
</svg>
