<svg width="20" height="21" viewBox="0 0 20 21" fill="none" xmlns="http://www.w3.org/2000/svg">
<path d="M10.2041 8.59085V12.6572H15.6958C15.4546 13.965 14.731 15.0723 13.6456 15.8168L16.9573 18.4609C18.8868 16.6283 20 13.9364 20 10.7387C20 9.99415 19.9351 9.27818 19.8145 8.59097L10.2041 8.59085Z" fill="#4285F4"/>
<path d="M4.48554 12.4985L3.73863 13.0868L1.09479 15.2059C2.77383 18.6327 6.21514 21 10.204 21C12.959 21 15.2689 20.0645 16.9572 18.4609L13.6455 15.8168C12.7364 16.4468 11.5769 16.8287 10.204 16.8287C7.55094 16.8287 5.29682 14.9864 4.48971 12.5046L4.48554 12.4985Z" fill="#34A853"/>
<path d="M1.09454 5.79413C0.398847 7.2068 0 8.80092 0 10.5C0 12.199 0.398847 13.7932 1.09454 15.2058C1.09454 15.2153 4.48979 12.4949 4.48979 12.4949C4.28571 11.8649 4.16508 11.1968 4.16508 10.4999C4.16508 9.80296 4.28571 9.13482 4.48979 8.50482L1.09454 5.79413Z" fill="#FBBC05"/>
<path d="M10.2042 4.18092C11.707 4.18092 13.0428 4.71545 14.1096 5.74637L17.0317 2.73959C15.2598 1.04052 12.9594 0 10.2042 0C6.21535 0 2.77383 2.35773 1.09479 5.79411L4.48993 8.50503C5.29694 6.02318 7.55115 4.18092 10.2042 4.18092Z" fill="#EA4335"/>
</svg>
