<svg width="15" height="15" viewBox="0 0 15 15" fill="none" xmlns="http://www.w3.org/2000/svg">
<path d="M11.25 13.7508H3.75C3.41848 13.7508 3.10054 13.6191 2.86612 13.3847C2.6317 13.1502 2.5 12.8323 2.5 12.5008V2.50078C2.5 2.16926 2.6317 1.85131 2.86612 1.61689C3.10054 1.38247 3.41848 1.25078 3.75 1.25078H8.1875C8.36125 1.24465 8.53437 1.27483 8.6958 1.3394C8.85722 1.40397 9.00341 1.50151 9.125 1.62578L12.1875 4.87578C12.4002 5.11646 12.5121 5.42979 12.5 5.75078V12.5008C12.5 12.8323 12.3683 13.1502 12.1339 13.3847C11.8995 13.6191 11.5815 13.7508 11.25 13.7508Z" stroke="white" stroke-linecap="round" stroke-linejoin="round"/>
<path d="M4.9375 10.9382H10.0625" stroke="white" stroke-linecap="round" stroke-linejoin="round"/>
<path d="M4.9375 8.43823H10.0625" stroke="white" stroke-linecap="round" stroke-linejoin="round"/>
<path d="M5 5.93823H8.125" stroke="white" stroke-linecap="round" stroke-linejoin="round"/>
</svg>
