<svg width="122" height="26" viewBox="0 0 122 26" fill="none" xmlns="http://www.w3.org/2000/svg">
<path d="M4.68176 8.39963V20.9302L0 19.0024V6.33414L15.0092 0L30.0183 6.33414V8.39963L12.6683 15.8354L6.33414 13.2191V8.95042L12.6683 11.7044L22.858 7.29804L15.0092 3.99327L4.68176 8.39963Z" fill="white"/>
<path d="M15.0092 5.37025L8.12423 8.39963L12.6683 10.4651L19.6909 7.29804L15.0092 5.37025Z" fill="white"/>
<path d="M6.33414 21.6187V14.4584L11.0159 16.2485V19.5532L15.0092 21.3433L25.3366 16.937V15.8354L15.0092 20.104L12.6683 19.0024V16.937L30.0183 9.77662V19.0024L15.0092 25.1989L6.33414 21.6187Z" fill="white"/>
<path fill-rule="evenodd" clip-rule="evenodd" d="M39.933 14.7336V18.5892H36.0774V6.47168H44.3393C45.5327 6.79298 47.9195 8.04145 47.9195 10.4649C47.9195 12.8884 45.8999 14.3205 44.8901 14.7336H39.933ZM39.933 9.50114H42.9624C43.2378 9.59294 43.7886 9.94177 43.7886 10.6027C43.7886 11.2637 43.2378 11.6125 42.9624 11.7043H39.933V9.50114Z" fill="white"/>
<path fill-rule="evenodd" clip-rule="evenodd" d="M53.4267 18.8655C56.4687 18.8655 58.9347 16.7694 58.9347 14.1837C58.9347 11.598 56.4687 9.50195 53.4267 9.50195C50.3848 9.50195 47.9188 11.598 47.9188 14.1837C47.9188 16.7694 50.3848 18.8655 53.4267 18.8655ZM53.4265 15.8361C54.3391 15.8361 55.0789 15.0963 55.0789 14.1837C55.0789 13.2711 54.3391 12.5313 53.4265 12.5313C52.514 12.5313 51.7742 13.2711 51.7742 14.1837C51.7742 15.0963 52.514 15.8361 53.4265 15.8361Z" fill="white"/>
<path fill-rule="evenodd" clip-rule="evenodd" d="M93.0843 18.8655C96.1263 18.8655 98.5923 16.7694 98.5923 14.1837C98.5923 11.598 96.1263 9.50195 93.0843 9.50195C90.0424 9.50195 87.5764 11.598 87.5764 14.1837C87.5764 16.7694 90.0424 18.8655 93.0843 18.8655ZM93.0843 15.8361C93.9969 15.8361 94.7367 15.0963 94.7367 14.1837C94.7367 13.2711 93.9969 12.5313 93.0843 12.5313C92.1717 12.5313 91.4319 13.2711 91.4319 14.1837C91.4319 15.0963 92.1717 15.8361 93.0843 15.8361Z" fill="white"/>
<path fill-rule="evenodd" clip-rule="evenodd" d="M116.492 18.8655C119.534 18.8655 122 16.7694 122 14.1837C122 11.598 119.534 9.50195 116.492 9.50195C113.45 9.50195 110.984 11.598 110.984 14.1837C110.984 16.7694 113.45 18.8655 116.492 18.8655ZM116.492 15.8361C117.405 15.8361 118.144 15.0963 118.144 14.1837C118.144 13.2711 117.405 12.5313 116.492 12.5313C115.579 12.5313 114.84 13.2711 114.84 14.1837C114.84 15.0963 115.579 15.8361 116.492 15.8361Z" fill="white"/>
<path d="M68.2988 9.77661H64.4432C65.7284 12.7601 68.2988 18.5893 68.2988 19.0024C68.2988 19.4155 68.0234 19.4155 68.0234 19.4155H66.0956L65.6825 22.1695H68.7119C69.9236 22.1695 70.9609 20.8843 71.3281 20.2417L75.7345 9.77661H72.0166L70.0889 14.7338L68.2988 9.77661Z" fill="white"/>
<rect x="60.3122" y="6.47168" width="3.58017" height="12.3929" fill="white"/>
<path fill-rule="evenodd" clip-rule="evenodd" d="M82.8944 9.77735V10.7412C82.5272 10.3281 81.4073 9.50195 79.8651 9.50195C77.9373 9.50195 75.7341 11.1543 75.7341 14.1837C75.7341 17.2131 78.2127 18.5901 79.8651 18.5901C81.187 18.5901 82.4354 17.6721 82.8944 17.2131V18.3147C82.7567 18.7737 82.0682 19.6917 80.4159 19.6917C78.7635 19.6917 77.8914 18.9573 77.6619 18.5901L76.2849 21.0687C76.7898 21.5276 78.3228 22.4456 80.4159 22.4456C83.4452 22.4456 86.4746 20.5179 86.4746 18.7278V9.77735H82.8944ZM81.1042 15.5615C81.9407 15.5615 82.6189 14.8833 82.6189 14.0468C82.6189 13.2102 81.9407 12.5321 81.1042 12.5321C80.2676 12.5321 79.5895 13.2102 79.5895 14.0468C79.5895 14.8833 80.2676 15.5615 81.1042 15.5615Z" fill="white"/>
<path fill-rule="evenodd" clip-rule="evenodd" d="M106.303 9.77735V10.7412C105.936 10.3281 104.816 9.50195 103.274 9.50195C101.346 9.50195 99.1431 11.1543 99.1431 14.1837C99.1431 17.2131 101.622 18.5901 103.274 18.5901C104.596 18.5901 105.844 17.6721 106.303 17.2131V18.3147C106.166 18.7737 105.477 19.6917 103.825 19.6917C102.172 19.6917 101.3 18.9573 101.071 18.5901L99.6939 21.0687C100.199 21.5276 101.732 22.4456 103.825 22.4456C106.854 22.4456 109.884 20.5179 109.884 18.7278V9.77735H106.303ZM104.513 15.5615C105.35 15.5615 106.028 14.8833 106.028 14.0468C106.028 13.2102 105.35 12.5321 104.513 12.5321C103.677 12.5321 102.998 13.2102 102.998 14.0468C102.998 14.8833 103.677 15.5615 104.513 15.5615Z" fill="white"/>
</svg>
