<svg width="24" height="24" viewBox="0 0 24 24" fill="none" xmlns="http://www.w3.org/2000/svg">
<g clip-path="url(#clip0_612_1716)">
<path d="M3.86712 1.01977C2.94192 1.19017 2.18712 1.59049 1.506 2.28097C0.912239 2.87929 0.534719 3.54673 0.323039 4.38433C0.244799 4.67881 0.240239 5.06545 0.240239 9.41977C0.240239 14.6438 0.221759 14.3215 0.544079 15.1224C0.953759 16.1534 1.8696 17.0923 2.89152 17.525C3.56352 17.8104 3.82128 17.8565 5.01792 17.8795L6.10872 17.898V20.1718C6.10872 22.6618 6.10872 22.6435 6.38016 22.8737C6.55056 23.0117 6.77136 23.0669 7.01544 23.021C7.17192 22.9934 7.494 22.6896 9.74472 20.4434L12.2993 17.8937L16.1885 17.8752C20.4415 17.8613 20.2344 17.8752 20.9707 17.5853C22.0846 17.1434 23.0374 16.1906 23.4792 15.0768C23.7737 14.322 23.76 14.6074 23.76 9.42001C23.76 5.06593 23.7554 4.67929 23.6772 4.38457C23.4655 3.54697 23.088 2.87953 22.4942 2.28121C21.9005 1.67833 21.2837 1.31929 20.4276 1.07521L20.0779 0.973928L12.1382 0.964809C5.76792 0.960009 4.134 0.969128 3.86712 1.01977ZM19.9858 2.49265C21.072 2.71825 22.0154 3.66169 22.241 4.74793C22.3423 5.23129 22.3423 13.6174 22.241 14.0868C22.0661 14.9244 21.4586 15.707 20.6945 16.0843C20.0134 16.4249 20.1468 16.4158 15.6821 16.4158H11.701L9.64344 18.4733L7.58136 20.5354V18.4733V16.4158H5.96112C4.1016 16.4158 3.92664 16.3927 3.30528 16.0843C2.53656 15.707 1.93368 14.9292 1.75872 14.0914C1.65744 13.6128 1.65744 5.22649 1.75872 4.74793C1.98432 3.66625 2.91408 2.72737 3.99096 2.49721C4.45176 2.39593 19.5163 2.39593 19.9858 2.49265Z" fill="white"/>
<path d="M11.8896 4.73431C11.8529 4.79407 11.5997 5.39719 11.328 6.08287C11.0566 6.76399 10.7988 7.38079 10.7527 7.44535C10.5871 7.68007 10.4582 7.70767 8.91168 7.81351C7.35144 7.91935 7.25016 7.94239 7.42512 8.13559C7.4712 8.19079 7.98216 8.62351 8.55288 9.10207C9.12816 9.58063 9.6252 10.0179 9.66216 10.0733C9.81864 10.3126 9.80472 10.4185 9.44592 11.8501C9.2568 12.614 9.10032 13.2814 9.10032 13.3321C9.10032 13.3827 9.13248 13.4379 9.16944 13.4518C9.21552 13.4703 9.73104 13.171 10.5134 12.6831C11.687 11.9465 11.8022 11.8868 12 11.8868C12.1978 11.8868 12.313 11.9465 13.4866 12.6831C14.269 13.171 14.7845 13.4701 14.8306 13.4518C14.8673 13.4379 14.8997 13.3827 14.8997 13.3275C14.8997 13.2769 14.7432 12.6049 14.5498 11.8361C14.2046 10.483 14.1998 10.4415 14.2598 10.2435C14.3196 10.0594 14.4254 9.95815 15.3691 9.16639C15.9444 8.68303 16.4738 8.23663 16.5427 8.16751C16.7683 7.93735 16.6946 7.91887 15.0838 7.80847C13.5418 7.70263 13.4083 7.67959 13.2473 7.44487C13.2012 7.38055 12.9434 6.76375 12.672 6.08239C12.175 4.83511 12.0828 4.63255 12 4.63255C11.977 4.63303 11.9263 4.67887 11.8896 4.73431Z" fill="white"/>
</g>
<defs>
<clipPath id="clip0_612_1716">
<rect width="24" height="24" fill="white"/>
</clipPath>
</defs>
</svg>
