<svg width="21" height="19" viewBox="0 0 21 19" fill="none" xmlns="http://www.w3.org/2000/svg">
<path d="M19.0743 4.13031H14.3031V2.7905C14.3031 1.5557 12.9822 0.549805 11.3568 0.549805H9.56756C7.95896 0.549805 6.69896 1.5347 6.69896 2.7905V4.13031H2.07056C1.02896 4.13031 0.209961 4.8695 0.209961 5.8103V7.2614V8.38071V9.39081C0.209961 9.55461 0.300261 9.7079 0.445161 9.78561C0.482961 9.80451 0.718161 9.92841 1.10456 10.1132V17.4422C1.10456 17.9273 1.44686 18.446 1.96136 18.446H18.9609C19.488 18.446 19.8954 17.9084 19.8954 17.4422V10.1132C20.2818 9.92841 20.5149 9.80451 20.5527 9.78351C20.6997 9.70581 20.7879 9.55461 20.7879 9.38871V8.38071V7.2614V5.8103C20.7921 4.838 20.0676 4.13031 19.0743 4.13031ZM7.80356 2.7926C7.80356 2.0513 8.47556 1.6607 9.56546 1.6607H11.3547C12.4488 1.6607 13.1964 2.0765 13.1964 2.7926V4.1324H7.80356V2.7926ZM18.7887 17.1419C18.7887 17.1734 18.7488 17.2322 18.7173 17.2553H2.24066C2.22596 17.228 2.21336 17.186 2.21336 17.1461V10.5248C3.72326 11.1821 5.72456 12.0914 8.27606 12.4358V12.8579C8.27606 13.3514 8.67716 13.7525 9.17066 13.7525H11.8335C12.327 13.7525 12.7281 13.3514 12.7281 12.8579V12.4379C15.2796 12.0914 17.2809 11.1842 18.7908 10.5248L18.7887 17.1419ZM9.38066 12.8558V10.6193H11.6172V12.8558H9.38066ZM19.6833 8.90361C18.8055 9.34041 16.0545 10.8377 12.726 11.3165V10.6172C12.726 10.1237 12.3249 9.7226 11.8314 9.7226H9.16856C8.67506 9.7226 8.27396 10.1237 8.27396 10.6172V11.3165C4.94756 10.8398 2.19446 9.34251 1.31876 8.90361V8.33871V7.26351V5.81241C1.31876 5.321 1.59806 5.23911 2.07266 5.23911H19.0743C19.5741 5.23911 19.6854 5.3357 19.6854 5.81241V7.26351V8.1686V8.90361H19.6833Z" fill="#797979"/>
</svg>
