<svg width="34" height="34" viewBox="0 0 34 34" fill="none" xmlns="http://www.w3.org/2000/svg">
<g id="akar-icons:bell">
<g id="Group">
<path id="Vector" d="M21.25 26.9167C21.25 28.0439 20.8022 29.1249 20.0052 29.9219C19.2081 30.719 18.1271 31.1667 17 31.1667C15.8728 31.1667 14.7918 30.719 13.9948 29.9219C13.1977 29.1249 12.75 28.0439 12.75 26.9167M18.0214 7.08765L15.9446 7.0834C11.2072 7.07207 7.09464 10.9211 7.06206 15.5834V20.9526C7.06206 22.0717 6.92039 23.164 6.30981 24.0947L5.90322 24.7152C5.28414 25.6559 5.94997 26.9167 7.06206 26.9167H26.9379C28.05 26.9167 28.7144 25.6559 28.0967 24.7152L27.6901 24.0947C27.081 23.164 26.9379 22.0703 26.9379 20.9511V15.5848C26.8812 10.9211 22.7587 7.09898 18.0214 7.08765V7.08765Z" stroke="#263238" stroke-width="2" stroke-linecap="round" stroke-linejoin="round"/>
<path id="Vector_2" d="M17 2.83337C17.7514 2.83337 18.4721 3.13188 19.0034 3.66324C19.5348 4.19459 19.8333 4.91526 19.8333 5.66671V7.08337H14.1666V5.66671C14.1666 4.91526 14.4651 4.19459 14.9965 3.66324C15.5278 3.13188 16.2485 2.83337 17 2.83337Z" stroke="#263238" stroke-width="2" stroke-linecap="round" stroke-linejoin="round"/>
</g>
</g>
</svg>
