<svg width="19" height="19" viewBox="0 0 19 19" fill="none" xmlns="http://www.w3.org/2000/svg">
<g clip-path="url(#clip0_384_5510)">
<path d="M12.2646 1.55859V17.5156H1.55859V1.55859H12.2646ZM12.8083 0.0742188H1.01494C0.49541 0.0742188 0.0742188 0.57334 0.0742188 1.1875V17.8867C0.0742188 18.5009 0.49541 19 1.01494 19H12.8083C13.3278 19 13.749 18.5009 13.749 17.8867V1.1875C13.749 0.57334 13.3278 0.0742188 12.8083 0.0742188Z" fill="#797979"/>
<path d="M9.37012 13.7676V17.4971H4.45312V13.7676H9.37012ZM10.502 12.2832H3.30459C2.99287 12.2832 2.96875 12.4595 2.96875 12.6766V18.5862C2.96875 18.8033 2.99473 18.9796 3.30459 18.9796H10.502C10.8137 18.9796 10.8545 18.8033 10.8545 18.5862V12.6766C10.8545 12.4595 10.8137 12.2832 10.502 12.2832ZM17.4785 7.3291V17.4971H13.7694V7.3291H17.4785ZM18.6642 5.84473H12.5708C12.3073 5.84473 12.2869 6.18984 12.2869 6.6166V18.2077C12.2869 18.6345 12.3073 18.9796 12.5708 18.9796H18.6642C18.9276 18.9796 18.9629 18.6345 18.9629 18.2077V6.6166C18.9629 6.18984 18.9276 5.84473 18.6642 5.84473ZM5.39941 4.1377H3.43262C3.02256 4.1377 2.69043 3.80557 2.69043 3.39551C2.69043 2.98545 3.02256 2.65332 3.43262 2.65332H5.39941C5.80947 2.65332 6.1416 2.98545 6.1416 3.39551C6.1416 3.80557 5.80947 4.1377 5.39941 4.1377ZM10.4092 4.1377H8.44238C8.03232 4.1377 7.7002 3.80557 7.7002 3.39551C7.7002 2.98545 8.03232 2.65332 8.44238 2.65332H10.4092C10.8192 2.65332 11.1514 2.98545 11.1514 3.39551C11.1514 3.80557 10.8192 4.1377 10.4092 4.1377ZM5.39941 7.05078H3.43262C3.02256 7.05078 2.69043 6.71865 2.69043 6.30859C2.69043 5.89854 3.02256 5.56641 3.43262 5.56641H5.39941C5.80947 5.56641 6.1416 5.89854 6.1416 6.30859C6.1416 6.71865 5.80947 7.05078 5.39941 7.05078ZM10.4092 7.05078H8.44238C8.03232 7.05078 7.7002 6.71865 7.7002 6.30859C7.7002 5.89854 8.03232 5.56641 8.44238 5.56641H10.4092C10.8192 5.56641 11.1514 5.89854 11.1514 6.30859C11.1514 6.71865 10.8192 7.05078 10.4092 7.05078ZM5.39941 9.96387H3.43262C3.02256 9.96387 2.69043 9.63174 2.69043 9.22168C2.69043 8.81162 3.02256 8.47949 3.43262 8.47949H5.39941C5.80947 8.47949 6.1416 8.81162 6.1416 9.22168C6.1416 9.63174 5.80947 9.96387 5.39941 9.96387ZM10.4092 9.96387H8.44238C8.03232 9.96387 7.7002 9.63174 7.7002 9.22168C7.7002 8.81162 8.03232 8.47949 8.44238 8.47949H10.4092C10.8192 8.47949 11.1514 8.81162 11.1514 9.22168C11.1514 9.63174 10.8192 9.96387 10.4092 9.96387Z" fill="#797979"/>
<path d="M14.2129 10.335H13.4763C13.0662 10.335 12.7341 10.0028 12.7341 9.59277C12.7341 9.18271 13.0662 8.85059 13.4763 8.85059H14.2129C14.6229 8.85059 14.9551 9.18271 14.9551 9.59277C14.9551 10.0028 14.6229 10.335 14.2129 10.335ZM14.2129 13.6562H13.415C13.005 13.6562 12.6729 13.3241 12.6729 12.9141C12.6729 12.504 13.005 12.1719 13.415 12.1719H14.2129C14.6229 12.1719 14.9551 12.504 14.9551 12.9141C14.9551 13.3241 14.6229 13.6562 14.2129 13.6562ZM14.2129 16.9775H13.5375C13.1274 16.9775 12.7953 16.6454 12.7953 16.2354C12.7953 15.8253 13.1274 15.4932 13.5375 15.4932H14.2129C14.6229 15.4932 14.9551 15.8253 14.9551 16.2354C14.9551 16.6454 14.6229 16.9775 14.2129 16.9775Z" fill="#797979"/>
</g>
<defs>
<clipPath id="clip0_384_5510">
<rect width="19" height="19" fill="white"/>
</clipPath>
</defs>
</svg>
