<svg width="28" height="28" viewBox="0 0 28 28" fill="none" xmlns="http://www.w3.org/2000/svg">
<g clip-path="url(#clip0_612_1721)">
<path d="M3.68414 21.3644L3.68333 21.3643V21.3734C3.68333 21.5172 3.70697 21.6465 3.77431 21.7408C3.84332 21.8374 3.95205 21.889 4.10193 21.89L11.5573 23.2879C11.7525 23.3834 11.9485 23.3834 12.2189 23.3834H12.2267C12.8384 23.3834 13.6827 23.2659 14.4558 23.0668C14.8426 22.9672 15.2127 22.8468 15.5278 22.7099C15.8399 22.5742 16.1018 22.4207 16.2718 22.2523L20.4677 19.455L20.4683 19.4558L20.4754 19.4487C20.571 19.3531 20.6466 19.2538 20.6851 19.1509C20.7241 19.0471 20.7249 18.9403 20.673 18.8342C20.6236 18.6879 20.5485 18.5861 20.4574 18.521C20.3657 18.4556 20.2617 18.43 20.16 18.43H14.4667V18.4297L14.4611 18.4304C13.6303 18.5227 12.7134 18.3371 12.1671 17.8831C11.8976 17.6129 11.81 17.3461 11.81 17.08V16.6134C11.81 16.5784 11.8234 16.5343 11.8509 16.4821C11.878 16.4305 11.9168 16.375 11.9624 16.3179C12.0519 16.2061 12.1638 16.0937 12.2564 16.001C12.3549 15.9499 12.428 15.8759 12.4867 15.8054C12.5105 15.7769 12.5324 15.7483 12.5526 15.722C12.5579 15.7151 12.5631 15.7084 12.5681 15.7019C12.5929 15.6697 12.6145 15.6429 12.6354 15.6221L12.6356 15.6223L12.639 15.6179L14.5057 13.2846L14.5058 13.2847L14.5073 13.2824C14.9926 12.603 14.7933 11.6426 14.1287 10.978L13.942 10.7914L13.9421 10.7913L13.9392 10.7887C13.2648 10.2107 12.3974 10.3083 11.8213 10.7883L11.8212 10.7881L11.818 10.7914L8.65925 13.9501C7.25272 13.9556 5.47043 14.5216 4.62247 16.1233L4.61666 16.1343V16.1467V16.2355L3.68414 21.3644ZM11.7721 22.3515L11.7721 22.3514L11.7692 22.3509L4.81818 21.0534L5.64788 16.5361C5.92171 15.9932 6.42239 15.6053 7.00813 15.3526C7.59603 15.099 8.26581 14.9834 8.86666 14.9834C8.89698 14.9834 8.93145 14.976 8.96352 14.9669C8.99636 14.9575 9.03016 14.9452 9.06023 14.9331C9.09041 14.9211 9.11749 14.909 9.13699 14.9L9.1602 14.8891L9.16661 14.886L9.16834 14.8851L9.16882 14.8849L9.16895 14.8848L9.169 14.8848L9.16901 14.8848L9.14666 14.84L9.16902 14.8848L9.17628 14.8811L9.18202 14.8754L12.4487 11.6087L12.4544 11.603L12.4581 11.5957C12.4949 11.5221 12.5937 11.4579 12.7249 11.436C12.8526 11.4148 13.0009 11.4357 13.1282 11.519L13.3088 11.6995C13.4454 11.8823 13.5578 12.0858 13.6137 12.2758C13.6699 12.467 13.6665 12.6352 13.5862 12.7572L11.721 15.0888L11.7201 15.0881L11.7153 15.0977C11.6264 15.2754 11.5385 15.3641 11.4471 15.4555C11.0687 15.7403 10.6833 16.2191 10.6833 16.8V17.2667C10.6833 17.9351 10.9701 18.5095 11.4488 18.8924L11.4487 18.8924L11.45 18.8934C12.205 19.4596 13.4298 19.8377 14.4712 19.65H18.406L15.5592 21.5182L15.5586 21.5174L15.5513 21.5247C15.4985 21.5775 15.4121 21.6344 15.2963 21.6932C15.1811 21.7515 15.0399 21.8102 14.88 21.8673C14.5603 21.9816 14.1687 22.089 13.7677 22.1762C13.3668 22.2633 12.9575 22.3301 12.6026 22.3634C12.2458 22.3969 11.9499 22.396 11.7721 22.3515Z" fill="white" stroke="white" stroke-width="0.1"/>
<path d="M0.057978 14.058L0.0433333 14.0726V14.0934C0.0433333 14.1098 0.0390099 14.1336 0.0305118 14.1648C0.0221967 14.1953 0.0110062 14.2289 -0.000767494 14.2642L-0.00102489 14.265C-0.0125072 14.2994 -0.0245381 14.3355 -0.0336549 14.369C-0.0426568 14.402 -0.05 14.4364 -0.05 14.4667V22.8667C-0.05 22.9745 0.00279938 23.1025 0.0907045 23.2029C0.179437 23.3044 0.30893 23.3834 0.466667 23.3834C1.27147 23.3834 2.25985 23.0293 3.05407 22.6672C3.4522 22.4857 3.80347 22.3013 4.06118 22.1563C4.19003 22.0838 4.29569 22.0211 4.37226 21.9734C4.41052 21.9496 4.44175 21.9294 4.46511 21.9135C4.48687 21.8987 4.50559 21.8851 4.51536 21.8754L4.51685 21.8739C4.56244 21.8283 4.61119 21.7795 4.64833 21.73C4.68549 21.6805 4.71667 21.623 4.71667 21.56C4.71667 21.5613 4.7167 21.5591 4.71804 21.5497C4.71919 21.5417 4.72096 21.5307 4.72336 21.5167C4.72815 21.4887 4.73524 21.4496 4.74444 21.4002C4.75538 21.3414 4.7692 21.2683 4.7855 21.1821C4.79664 21.1232 4.80893 21.0582 4.82226 20.9874C4.88791 20.6387 4.97838 20.1514 5.07761 19.5735C5.27605 18.4179 5.50961 16.8998 5.64978 15.4047L5.65 15.4047V15.4L5.65 15.3971C5.65003 15.3056 5.65008 15.0941 5.44305 14.9857C5.20038 14.7463 4.80826 14.5643 4.3532 14.4247C3.89314 14.2836 3.36227 14.184 2.84168 14.1138C1.80043 13.9734 0.794718 13.95 0.466667 13.95H0.465683C0.419248 13.95 0.345872 13.95 0.27178 13.9624C0.198312 13.9746 0.115729 14.0003 0.057978 14.058ZM15.8167 12.5067H15.8164L15.817 12.5122C15.8658 12.9516 16.158 13.3368 16.5864 13.6105C17.0152 13.8845 17.5848 14.05 18.2 14.05C18.8624 14.05 19.4564 13.8608 19.8859 13.5506C20.3156 13.2403 20.5833 12.8065 20.5833 12.32C20.5833 11.6859 20.1667 11.2991 19.6803 11.0618C19.1943 10.8247 18.6275 10.7306 18.3004 10.6839L18.3005 10.6834H18.2933H18.2021C17.6477 10.6369 17.3068 10.5217 17.1061 10.399C16.904 10.2755 16.85 10.1491 16.85 10.08C16.85 9.92228 16.9911 9.74849 17.2439 9.61059C17.4927 9.47488 17.8344 9.38336 18.2 9.38336C18.5655 9.38336 18.9079 9.47486 19.1576 9.59975C19.2826 9.66223 19.3826 9.73216 19.4505 9.80149C19.5195 9.87186 19.55 9.93573 19.55 9.98669C19.55 10.2079 19.7666 10.41 20.0667 10.41C20.2879 10.41 20.49 10.1935 20.49 9.89336H20.4903L20.4897 9.88784C20.4409 9.4484 20.1487 9.06329 19.7203 8.78956C19.2914 8.51558 18.7219 8.35002 18.1067 8.35002C17.4442 8.35002 16.8503 8.53923 16.4207 8.84949C15.9911 9.1598 15.7233 9.59356 15.7233 10.08C15.7233 10.7141 16.1399 11.101 16.6264 11.3383C17.1124 11.5753 17.6792 11.6695 18.0063 11.7162L18.0062 11.7167H18.0133H18.1046C18.659 11.7631 18.9999 11.8784 19.2006 12.001C19.4027 12.1245 19.4567 12.2509 19.4567 12.32C19.4567 12.4778 19.3156 12.6516 19.0627 12.7895C18.8139 12.9252 18.4723 13.0167 18.1067 13.0167C17.7411 13.0167 17.3988 12.9252 17.149 12.8003C17.0241 12.7378 16.9241 12.6679 16.8561 12.5986C16.7871 12.5282 16.7567 12.4643 16.7567 12.4134C16.7567 12.1921 16.5401 11.99 16.24 11.99C16.0188 11.99 15.8167 12.2066 15.8167 12.5067ZM0.983333 22.2452V14.9871C1.62298 15.0337 2.34631 15.1023 3.00317 15.1929C3.65854 15.2833 4.24372 15.3951 4.61389 15.5273C4.42732 17.9165 3.97212 20.385 3.7841 21.0601C3.13988 21.4266 1.89521 22.0469 0.983333 22.2452Z" fill="white" stroke="white" stroke-width="0.1"/>
<path d="M17.6833 14.4667C17.6833 14.618 17.734 14.748 17.8263 14.8403C17.9186 14.9327 18.0486 14.9833 18.2 14.9833C18.3577 14.9833 18.4872 14.9043 18.576 14.8029C18.6639 14.7025 18.7167 14.5745 18.7167 14.4667V7.93333C18.7167 7.78196 18.666 7.65194 18.5737 7.55964C18.4814 7.46733 18.3514 7.41666 18.2 7.41666C18.0486 7.41666 17.9186 7.46733 17.8263 7.55964C17.734 7.65194 17.6833 7.78196 17.6833 7.93333V14.4667ZM22.8667 7.51666H24.7333C24.8847 7.51666 25.0147 7.46599 25.107 7.37368C25.1993 7.28137 25.25 7.15135 25.25 6.99999C25.25 6.84863 25.1993 6.71861 25.107 6.6263C25.0147 6.534 24.8847 6.48333 24.7333 6.48333H22.8667C22.7089 6.48333 22.5794 6.56232 22.4907 6.66373C22.4028 6.7642 22.35 6.89215 22.35 6.99999C22.35 7.10784 22.4028 7.23579 22.4907 7.33625C22.5794 7.43766 22.7089 7.51666 22.8667 7.51666Z" fill="white" stroke="white" stroke-width="0.1"/>
<path d="M14.4667 17.7833H27.5333C27.6911 17.7833 27.8206 17.7043 27.9093 17.6029C27.9972 17.5024 28.05 17.3745 28.05 17.2666V5.13329C28.05 4.98193 27.9993 4.85191 27.907 4.7596C27.8147 4.6673 27.6847 4.61663 27.5333 4.61663H8.86667C8.71531 4.61663 8.58528 4.6673 8.49298 4.7596C8.40067 4.85191 8.35 4.98193 8.35 5.13329V10.7333C8.35 10.8411 8.4028 10.9691 8.49071 11.0696C8.57944 11.171 8.70893 11.25 8.86667 11.25C9.01803 11.25 9.14805 11.1993 9.24036 11.107C9.33266 11.0147 9.38333 10.8847 9.38333 10.7333V5.64996H27.0167V16.75H14.4667C14.3153 16.75 14.1853 16.8006 14.093 16.8929C14.0007 16.9852 13.95 17.1153 13.95 17.2666C13.95 17.418 14.0007 17.548 14.093 17.6403C14.1853 17.7326 14.3153 17.7833 14.4667 17.7833Z" fill="white" stroke="white" stroke-width="0.1"/>
</g>
<defs>
<clipPath id="clip0_612_1721">
<rect width="28" height="28" fill="white"/>
</clipPath>
</defs>
</svg>
