<svg width="20" height="20" viewBox="0 0 20 20" fill="none" xmlns="http://www.w3.org/2000/svg">
<path d="M6.25814 16.5015C7.35938 17.1366 8.63708 17.5 9.99967 17.5C14.1418 17.5 17.5 14.1422 17.5 10C17.5 5.85787 14.1422 2.5 10 2.5C5.85787 2.5 2.5 5.85787 2.5 10C2.5 11.3626 2.86337 12.6403 3.49849 13.7416L3.50095 13.7458C3.56207 13.8518 3.59288 13.9053 3.60684 13.9558C3.62001 14.0033 3.62368 14.0462 3.62031 14.0955C3.61669 14.1484 3.59883 14.2033 3.56223 14.3132L2.92155 16.2352L2.92074 16.2377C2.78557 16.6432 2.71798 16.846 2.76615 16.9812C2.80816 17.0989 2.90141 17.1919 3.01921 17.2339C3.15402 17.282 3.35587 17.2148 3.75962 17.0802L3.76465 17.0782L5.68671 16.4376C5.79614 16.4011 5.85178 16.3826 5.90466 16.379C5.95396 16.3756 5.99648 16.3801 6.04411 16.3932C6.09473 16.4072 6.14819 16.4381 6.25469 16.4995L6.25814 16.5015Z" stroke="#2F3E46" stroke-linecap="round" stroke-linejoin="round"/>
</svg>
