<svg width="21" height="20" viewBox="0 0 21 20" fill="none" xmlns="http://www.w3.org/2000/svg">
<path d="M0.791148 19.25C0.961289 17.7045 1.65361 16.2537 2.76637 15.1435C4.05768 13.8551 5.80944 13.131 7.63636 13.131C9.46329 13.131 11.215 13.8551 12.5064 15.1435C13.6191 16.2537 14.3114 17.7045 14.4816 19.25H0.791148ZM7.63636 10.6786C4.88465 10.6786 2.65909 8.45561 2.65909 5.71429C2.65909 2.97296 4.88465 0.75 7.63636 0.75C10.3881 0.75 12.6136 2.97296 12.6136 5.71429C12.6136 8.45561 10.3881 10.6786 7.63636 10.6786ZM17.9318 15.9881H20.25V16.3929H17.9318V15.9881ZM15.0682 11.2262H20.25V11.631H15.0682V11.2262ZM16.9773 6.46429H20.25V6.86905H16.9773V6.46429Z" stroke="white" stroke-width="1.5"/>
</svg>
