<svg width="20" height="20" viewBox="0 0 20 20" fill="none" xmlns="http://www.w3.org/2000/svg">
<g id="dollar-circle">
<path id="Vector" d="M10.0003 1.66675C5.40532 1.66675 1.66699 5.40508 1.66699 10.0001C1.66699 14.5951 5.40532 18.3334 10.0003 18.3334C14.5953 18.3334 18.3337 14.5951 18.3337 10.0001C18.3337 5.40508 14.5953 1.66675 10.0003 1.66675ZM10.0003 16.6667C6.32449 16.6667 3.33366 13.6759 3.33366 10.0001C3.33366 6.32425 6.32449 3.33341 10.0003 3.33341C13.6762 3.33341 16.667 6.32425 16.667 10.0001C16.667 13.6759 13.6762 16.6667 10.0003 16.6667Z" fill="#2F3E46"/>
<path id="Vector_2" d="M10.0003 9.16668C8.33366 9.16668 8.33366 8.64501 8.33366 8.33334C8.33366 7.93001 8.91783 7.50001 10.0003 7.50001C10.9878 7.50001 11.1553 8.03168 11.167 8.34834L12.0003 8.33334H12.8337C12.8337 7.47834 12.2787 6.27584 10.8337 5.93418V5.01001H9.16699V5.90418C7.52449 6.18001 6.66699 7.26001 6.66699 8.33334C6.66699 9.26668 7.10033 10.8333 10.0003 10.8333C11.667 10.8333 11.667 11.3967 11.667 11.6667C11.667 12.0125 11.1503 12.5 10.0003 12.5C8.46616 12.5 8.34283 11.7858 8.33366 11.6667H6.66699C6.66699 12.4317 7.21783 13.7942 9.16699 14.1V15H10.8337V14.0958C12.4762 13.82 13.3337 12.74 13.3337 11.6667C13.3337 10.7333 12.9003 9.16668 10.0003 9.16668Z" fill="#2F3E46"/>
</g>
</svg>
