<svg width="25" height="25" viewBox="0 0 25 25" fill="none" xmlns="http://www.w3.org/2000/svg">
<path d="M11.5429 19.427C11.2405 19.427 10.9959 19.6727 10.9959 19.9733C10.9959 20.2759 11.2404 20.5218 11.5429 20.5218C11.8452 20.5218 12.0899 20.2759 12.0899 19.9733C12.0899 19.6727 11.8452 19.427 11.5429 19.427Z" fill="white" stroke="white" stroke-width="0.5"/>
<path d="M12.5 6.47827C10.0931 6.47827 8.13483 8.4365 8.13483 10.8435C8.13483 11.1308 8.3678 11.3638 8.65516 11.3638C8.94252 11.3638 9.17549 11.1308 9.17549 10.8435C9.17549 9.01032 10.6669 7.51892 12.5 7.51892C14.3331 7.51892 15.8244 9.01032 15.8244 10.8435C15.8244 12.6767 14.3331 14.1682 12.5 14.1682C12.4821 14.1682 12.4642 14.1691 12.4467 14.1709C11.6747 14.1987 11.053 14.8203 11.0253 15.5922C11.0235 15.6098 11.0226 15.6276 11.0226 15.6456V17.7909C11.0226 18.0782 11.2555 18.3112 11.5429 18.3112C11.8303 18.3112 12.0632 18.0782 12.0632 17.7909V15.6456C12.0632 15.4048 12.2592 15.2089 12.5 15.2089C14.9069 15.2089 16.8651 13.2506 16.8651 10.8435C16.8651 8.4365 14.907 6.47827 12.5 6.47827Z" fill="white" stroke="white" stroke-width="0.5"/>
<circle cx="12.5" cy="12.5" r="11.75" stroke="white" stroke-width="1.5"/>
</svg>
