<svg width="27" height="37" viewBox="0 0 27 37" fill="none" xmlns="http://www.w3.org/2000/svg">
<path d="M21.6048 10.0089C21.6048 9.90472 21.692 9.81601 21.7991 9.81601H26.8096C26.9167 9.81601 27 9.90858 27 10.0127V31.7198C27 34.6318 24.588 37 21.6048 37H5.40317C2.41596 37 0 34.6395 0 31.7198H21.6048V10.0089ZM5.40317 0C2.41596 0 0 2.36819 0 5.28792V26.995C0 27.0991 0.091243 27.1878 0.198354 27.1878H5.20482C5.31193 27.1878 5.40317 27.0991 5.40317 26.995V5.28792H27C27 2.36819 24.588 0 21.6048 0H5.40317Z" fill="#0CAA41"/>
</svg>
