<svg width="39" height="41" viewBox="0 0 39 41" fill="none" xmlns="http://www.w3.org/2000/svg">
<path d="M19.8975 16.5797V24.2732H30.5878C30.1184 26.7474 28.7097 28.8425 26.5969 30.2511L33.0436 35.2537C36.7997 31.7863 38.9666 26.6934 38.9666 20.6434C38.9666 19.2347 38.8403 17.8801 38.6054 16.5799L19.8975 16.5797Z" fill="#4285F4"/>
<path d="M8.76466 23.9729L7.31069 25.086L2.16406 29.0952C5.43256 35.5787 12.1316 40.0576 19.8965 40.0576C25.2596 40.0576 29.756 38.2877 33.0426 35.2537L26.5959 30.2511C24.8262 31.443 22.569 32.1655 19.8965 32.1655C14.7319 32.1655 10.3439 28.68 8.77278 23.9844L8.76466 23.9729Z" fill="#34A853"/>
<path d="M2.1639 11.2883C0.809617 13.9611 0.0332031 16.9771 0.0332031 20.1917C0.0332031 23.4063 0.809617 26.4224 2.1639 29.0951C2.1639 29.1131 8.77325 23.9661 8.77325 23.9661C8.37597 22.7742 8.14115 21.5101 8.14115 20.1915C8.14115 18.873 8.37597 17.6089 8.77325 16.4169L2.1639 11.2883Z" fill="#FBBC05"/>
<path d="M19.8969 8.23615C22.8223 8.23615 25.4226 9.24748 27.4993 11.198L33.1875 5.50918C29.7384 2.29458 25.2602 0.325928 19.8969 0.325928C12.132 0.325928 5.43256 4.78671 2.16406 11.2883L8.77321 16.4173C10.3442 11.7217 14.7323 8.23615 19.8969 8.23615Z" fill="#EA4335"/>
</svg>
