<svg width="14" height="19" viewBox="0 0 14 19" fill="none" xmlns="http://www.w3.org/2000/svg">
<path d="M5.73766 0.623087L5.738 0.623022C9.86483 -0.179563 13.5 3.07229 13.5 7.24031C13.5 8.47955 13.1723 9.63752 12.609 10.6388L12.6081 10.64L12.5898 10.6721C12.4739 10.8751 12.2393 11.1986 12.017 11.4899C11.9091 11.6314 11.8092 11.7587 11.7362 11.8507C11.6998 11.8966 11.6702 11.9336 11.6498 11.9589L11.6265 11.9879L11.6206 11.9952L11.6192 11.997L11.6188 11.9974L11.6188 11.9974L11.6188 11.9974L11.6107 12.0074L11.6031 12.0178L7.60655 17.4923C7.60649 17.4924 7.60643 17.4925 7.60637 17.4926C7.29681 17.9138 6.69868 17.9112 6.39436 17.4938L6.39413 17.4934L2.33299 11.9313C2.18466 11.7178 2.03533 11.5296 1.90223 11.3619C1.87361 11.3258 1.84573 11.2907 1.81878 11.2565C1.66504 11.0613 1.53462 10.8873 1.42068 10.6915L1.3996 10.6543C0.653639 9.33832 0.314627 7.74194 0.601359 6.04108L0.601384 6.04093C1.05858 3.32403 3.14545 1.12537 5.73766 0.623087ZM3.41871 7.20986C3.41871 9.2282 5.00685 10.8948 6.99994 10.8948C8.99303 10.8948 10.5812 9.2282 10.5812 7.20986C10.5812 5.19153 8.99302 3.52492 6.99994 3.52492C5.00685 3.52492 3.41871 5.19153 3.41871 7.20986Z" stroke="#797979"/>
</svg>
