<svg width="21" height="21" viewBox="0 0 21 21" fill="none" xmlns="http://www.w3.org/2000/svg">
<g id="logout-svgrepo-com 1" clip-path="url(#clip0_1654_4348)">
<g id="XMLID_2_">
<path id="XMLID_4_" d="M17.741 11.4546H6.68194C6.15478 11.4546 5.7274 11.0272 5.7274 10.5C5.7274 9.97287 6.15478 9.54549 6.68194 9.54549H17.741L16.5068 8.31139C16.134 7.93867 16.134 7.33425 16.5068 6.96147C16.8795 6.58869 17.4839 6.58869 17.8567 6.96147L20.7202 9.82492C20.7423 9.847 20.7632 9.8701 20.7831 9.89428C20.7879 9.9002 20.792 9.90656 20.7967 9.91261C20.8113 9.93113 20.8256 9.94971 20.8387 9.96931C20.8426 9.97504 20.8457 9.98108 20.8494 9.98687C20.8625 10.0074 20.8754 10.028 20.887 10.0496C20.8892 10.0539 20.8911 10.0584 20.8933 10.0627C20.9053 10.086 20.9169 10.1097 20.927 10.1341C20.9283 10.1371 20.9292 10.1403 20.9304 10.1434C20.9408 10.1691 20.9504 10.1951 20.9585 10.2219C20.9596 10.2253 20.9602 10.2288 20.9611 10.2322C20.9688 10.2585 20.9759 10.285 20.9813 10.3122C20.9829 10.3203 20.9836 10.3286 20.985 10.3367C20.989 10.3593 20.9929 10.3818 20.9952 10.4048C20.9984 10.4363 21 10.4681 21 10.5C21 10.532 20.9984 10.5638 20.9952 10.5954C20.9929 10.6187 20.9889 10.6414 20.985 10.6641C20.9836 10.672 20.9829 10.6801 20.9813 10.6879C20.9758 10.7153 20.9688 10.7421 20.9611 10.7686C20.9601 10.7718 20.9595 10.7751 20.9586 10.7782C20.9504 10.8051 20.9408 10.8314 20.9303 10.8574C20.9291 10.8602 20.9283 10.8631 20.9271 10.8659C20.9169 10.8906 20.9052 10.9144 20.8931 10.9379C20.891 10.942 20.8892 10.9463 20.887 10.9505C20.8753 10.9722 20.8624 10.993 20.8491 11.0137C20.8456 11.0193 20.8425 11.0252 20.8388 11.0307C20.8256 11.0504 20.8112 11.0691 20.7967 11.0877C20.792 11.0936 20.7879 11.0999 20.7831 11.1058C20.7632 11.1299 20.7423 11.1531 20.7203 11.1752L17.8568 14.0386C17.6704 14.2251 17.4261 14.3182 17.1818 14.3182C16.9375 14.3182 16.6932 14.2251 16.5069 14.0386C16.1341 13.6658 16.1341 13.0615 16.5069 12.6887L17.741 11.4546Z" fill="#263238"/>
<path id="XMLID_5_" d="M7.80799 2.69177C10.4135 2.69177 12.8377 3.98435 14.2927 6.14933C14.5867 6.58683 14.4704 7.17992 14.0329 7.47398C13.5953 7.76798 13.0023 7.65178 12.7082 7.21415C11.6085 5.57774 9.77665 4.6008 7.80799 4.6008C4.55522 4.60086 1.90884 7.24718 1.90884 10.5C1.90884 13.7529 4.55522 16.3992 7.80799 16.3992C9.77086 16.3992 11.5997 15.4266 12.7002 13.7977C12.9954 13.3608 13.5887 13.246 14.0256 13.5411C14.4624 13.8362 14.5773 14.4296 14.2822 14.8664C12.8261 17.0216 10.4059 18.3083 7.80799 18.3083C3.50255 18.3083 -0.000252724 14.8055 -0.000252724 10.5C-0.000252724 6.19451 3.50255 2.69177 7.80799 2.69177Z" fill="#263238"/>
</g>
</g>
<defs>
<clipPath id="clip0_1654_4348">
<rect width="21" height="21" fill="white" transform="matrix(-1 0 0 1 21 0)"/>
</clipPath>
</defs>
</svg>
