<svg width="23" height="17" viewBox="0 0 23 17" fill="none" xmlns="http://www.w3.org/2000/svg">
<path d="M20.3825 0.27889C20.1366 0.124174 19.8554 0.0305736 19.5636 0.00631721C19.2717 -0.0179391 18.9783 0.0278911 18.709 0.139779L9.88371 3.52017C9.67477 3.60287 9.45133 3.64539 9.22575 3.64537H3.57587C3.10168 3.64537 2.64691 3.82857 2.31161 4.15468C1.97631 4.48078 1.78794 4.92307 1.78794 5.38425V5.52336H0V9.69669H1.78794V9.87753C1.79914 10.3314 1.99245 10.7631 2.32654 11.0802C2.66064 11.3973 3.10902 11.5748 3.57587 11.5747L5.72139 15.9984C5.86667 16.2963 6.0954 16.5483 6.3813 16.7255C6.6672 16.9026 6.99869 16.9978 7.33769 17H8.23881C8.71051 16.9963 9.16162 16.8115 9.49383 16.4858C9.82605 16.1601 10.0125 15.7199 10.0124 15.2611V11.7416L18.709 15.122C18.9229 15.2048 19.151 15.2473 19.3812 15.2472C19.7384 15.2416 20.0862 15.1353 20.3825 14.9412C20.6177 14.7867 20.8118 14.5799 20.9486 14.338C21.0854 14.0961 21.161 13.826 21.1692 13.5501V1.71173C21.1678 1.42866 21.0955 1.15018 20.9584 0.900484C20.8213 0.650782 20.6236 0.437407 20.3825 0.27889ZM8.2245 5.38425V9.87753H3.57587V5.38425H8.2245ZM8.2245 15.2611H7.32338L5.56405 11.5747H8.2245V15.2611ZM10.5417 10.0862C10.3718 10.0018 10.1948 9.93197 10.0124 9.87753V5.28688C10.193 5.25064 10.3701 5.19945 10.5417 5.13385L19.3812 1.71173V13.5083L10.5417 10.0862ZM21.2121 5.87114V9.34891C21.6863 9.34891 22.141 9.16571 22.4763 8.8396C22.8116 8.5135 23 8.07121 23 7.61003C23 7.14884 22.8116 6.70655 22.4763 6.38045C22.141 6.05434 21.6863 5.87114 21.2121 5.87114Z" fill="white"/>
</svg>
