<svg width="26" height="26" viewBox="0 0 26 26" fill="none" xmlns="http://www.w3.org/2000/svg">
<mask id="path-1-inside-1_612_1703" fill="white">
<path d="M5.77778 20.2222V13V20.2222ZM11.5556 20.2222V8.66667V20.2222ZM17.3333 20.2222V17.3333V20.2222ZM11.5556 2.88889H2.88889C2.12271 2.88889 1.38791 3.19325 0.846136 3.73502C0.304364 4.2768 0 5.0116 0 5.77778V23.1111C0 23.8773 0.304364 24.6121 0.846136 25.1539C1.38791 25.6956 2.12271 26 2.88889 26H20.2222C20.9884 26 21.7232 25.6956 22.265 25.1539C22.8067 24.6121 23.1111 23.8773 23.1111 23.1111V14.4444M21.6667 0V4.33333V0ZM21.6667 8.66667V4.33333V8.66667ZM21.6667 4.33333H26H21.6667ZM21.6667 4.33333H17.3333H21.6667Z"/>
</mask>
<path d="M4.27778 20.2222C4.27778 21.0506 4.94935 21.7222 5.77778 21.7222C6.6062 21.7222 7.27778 21.0506 7.27778 20.2222H4.27778ZM7.27778 13C7.27778 12.1716 6.6062 11.5 5.77778 11.5C4.94935 11.5 4.27778 12.1716 4.27778 13H7.27778ZM10.0556 20.2222C10.0556 21.0506 10.7271 21.7222 11.5556 21.7222C12.384 21.7222 13.0556 21.0506 13.0556 20.2222H10.0556ZM13.0556 8.66667C13.0556 7.83824 12.384 7.16667 11.5556 7.16667C10.7271 7.16667 10.0556 7.83824 10.0556 8.66667H13.0556ZM15.8333 20.2222C15.8333 21.0506 16.5049 21.7222 17.3333 21.7222C18.1618 21.7222 18.8333 21.0506 18.8333 20.2222H15.8333ZM18.8333 17.3333C18.8333 16.5049 18.1618 15.8333 17.3333 15.8333C16.5049 15.8333 15.8333 16.5049 15.8333 17.3333H18.8333ZM11.5556 4.38889C12.384 4.38889 13.0556 3.71732 13.0556 2.88889C13.0556 2.06046 12.384 1.38889 11.5556 1.38889V4.38889ZM2.88889 2.88889V1.38889V2.88889ZM0 5.77778H-1.5H0ZM0 23.1111H-1.5H0ZM24.6111 14.4444C24.6111 13.616 23.9395 12.9444 23.1111 12.9444C22.2827 12.9444 21.6111 13.616 21.6111 14.4444H24.6111ZM23.1667 0C23.1667 -0.828427 22.4951 -1.5 21.6667 -1.5C20.8382 -1.5 20.1667 -0.828427 20.1667 0H23.1667ZM20.1667 8.66667C20.1667 9.49509 20.8382 10.1667 21.6667 10.1667C22.4951 10.1667 23.1667 9.49509 23.1667 8.66667H20.1667ZM26 5.83333C26.8284 5.83333 27.5 5.16176 27.5 4.33333C27.5 3.50491 26.8284 2.83333 26 2.83333V5.83333ZM17.3333 2.83333C16.5049 2.83333 15.8333 3.50491 15.8333 4.33333C15.8333 5.16176 16.5049 5.83333 17.3333 5.83333V2.83333ZM7.27778 20.2222V13H4.27778V20.2222H7.27778ZM13.0556 20.2222V8.66667H10.0556V20.2222H13.0556ZM18.8333 20.2222V17.3333H15.8333V20.2222H18.8333ZM11.5556 1.38889H2.88889V4.38889H11.5556V1.38889ZM2.88889 1.38889C1.72488 1.38889 0.608552 1.85129 -0.214524 2.67436L1.9068 4.79568C2.16726 4.53522 2.52053 4.38889 2.88889 4.38889V1.38889ZM-0.214524 2.67436C-1.0376 3.49744 -1.5 4.61377 -1.5 5.77778H1.5C1.5 5.40942 1.64633 5.05615 1.9068 4.79568L-0.214524 2.67436ZM-1.5 5.77778V23.1111H1.5V5.77778H-1.5ZM-1.5 23.1111C-1.5 24.2751 -1.0376 25.3914 -0.214524 26.2145L1.9068 24.0932C1.64633 23.8327 1.5 23.4795 1.5 23.1111H-1.5ZM-0.214524 26.2145C0.608551 27.0376 1.72488 27.5 2.88889 27.5V24.5C2.52053 24.5 2.16726 24.3537 1.9068 24.0932L-0.214524 26.2145ZM2.88889 27.5H20.2222V24.5H2.88889V27.5ZM20.2222 27.5C21.3862 27.5 22.5026 27.0376 23.3256 26.2145L21.2043 24.0932C20.9438 24.3537 20.5906 24.5 20.2222 24.5V27.5ZM23.3256 26.2145C24.1487 25.3914 24.6111 24.2751 24.6111 23.1111H21.6111C21.6111 23.4795 21.4648 23.8327 21.2043 24.0932L23.3256 26.2145ZM24.6111 23.1111V14.4444H21.6111V23.1111H24.6111ZM20.1667 0V4.33333H23.1667V0H20.1667ZM23.1667 8.66667V4.33333H20.1667V8.66667H23.1667ZM21.6667 5.83333H26V2.83333H21.6667V5.83333ZM21.6667 2.83333H17.3333V5.83333H21.6667V2.83333Z" fill="white" mask="url(#path-1-inside-1_612_1703)"/>
</svg>
