<svg width="23" height="23" viewBox="0 0 23 23" fill="none" xmlns="http://www.w3.org/2000/svg">
<path d="M14.6302 7.40883C14.7363 7.63549 14.9485 7.79428 15.1958 7.83217L22.2315 8.90985C22.2352 8.91041 22.2376 8.91103 22.2389 8.91143L22.241 8.91221C22.2412 8.91227 22.241 8.91217 22.2411 8.91222C22.2416 8.91269 22.2453 8.9164 22.2479 8.9244C22.2506 8.93239 22.25 8.93786 22.2498 8.93911L22.2494 8.93999C22.2493 8.94025 22.2478 8.94314 22.2427 8.94833L17.1263 14.2057C16.9605 14.376 16.8853 14.6147 16.9235 14.8492L18.1231 22.2218C18.1231 22.2218 18.1231 22.2219 18.1231 22.2219C18.1237 22.226 18.1239 22.229 18.1239 22.2309C18.124 22.2327 18.1238 22.2336 18.1238 22.2338L18.1237 22.2344C18.1233 22.2352 18.1208 22.2398 18.1139 22.2447C18.1084 22.2485 18.1043 22.2496 18.1029 22.2499L18.1011 22.2493C18.0997 22.2488 18.0972 22.2478 18.0937 22.2458C18.0937 22.2458 18.0937 22.2458 18.0937 22.2458L11.8636 18.7932C11.6374 18.6679 11.3626 18.6679 11.1365 18.7932L4.90635 22.2458L5.2699 22.9018L4.90635 22.2458C4.90279 22.2478 4.90031 22.2488 4.89894 22.2494L4.89718 22.2499C4.89578 22.2496 4.89161 22.2485 4.88613 22.2447C4.8793 22.2398 4.87676 22.2352 4.8764 22.2344L4.87626 22.2338C4.87622 22.2335 4.87571 22.2299 4.87702 22.2219L6.07663 14.8492C6.11479 14.6147 6.03956 14.376 5.87385 14.2057L0.757301 8.94832L0.757271 8.94829C0.752206 8.94308 0.750711 8.94019 0.750574 8.93993L0.750247 8.93905C0.749991 8.93781 0.749396 8.93236 0.75206 8.92438C0.754724 8.9164 0.758371 8.9127 0.758901 8.91223C0.758956 8.91219 0.758802 8.91228 0.758935 8.91222L0.761093 8.91144C0.762418 8.91103 0.764801 8.91041 0.768458 8.90985L7.80422 7.83217C8.0516 7.79428 8.26379 7.63549 8.3699 7.40883L11.4818 0.76223L10.8025 0.444216L11.4818 0.762225C11.4837 0.758213 11.4852 0.755678 11.4861 0.754275L11.4876 0.752227C11.4888 0.751692 11.493 0.75 11.5 0.75C11.5071 0.75 11.5112 0.751685 11.5124 0.752222L11.5139 0.754263C11.5148 0.755665 11.5164 0.7582 11.5182 0.762211L11.5183 0.762218L14.6302 7.40883Z" stroke="white" stroke-width="1.5" stroke-linecap="round" stroke-linejoin="round"/>
</svg>
