<svg width="34" height="34" viewBox="0 0 34 34" fill="none" xmlns="http://www.w3.org/2000/svg">
<g id="icons8-settings 1" clip-path="url(#clip0_1636_478)">
<path id="Vector" d="M15.0995 1.35999C14.9383 1.36007 14.7824 1.4174 14.6595 1.52176C14.5367 1.62611 14.4549 1.7707 14.4288 1.92975L13.7673 5.9792C12.972 6.21056 12.2136 6.52273 11.4989 6.91155L8.15735 4.52491C8.02652 4.43149 7.86682 4.38743 7.7066 4.40056C7.54638 4.41369 7.39599 4.48315 7.28211 4.59663L4.63649 7.23959C4.52343 7.35273 4.45386 7.50209 4.44002 7.66144C4.42617 7.82078 4.46893 7.9799 4.56078 8.11085L6.91156 11.4737C6.51675 12.1926 6.19766 12.9552 5.96063 13.758L1.92844 14.4287C1.76988 14.4554 1.62591 14.5375 1.52209 14.6603C1.41827 14.783 1.36131 14.9386 1.36133 15.0994V18.8394C1.36104 18.9993 1.41706 19.1541 1.51955 19.2768C1.62204 19.3994 1.76445 19.482 1.9218 19.5101L5.95664 20.2247C6.19239 21.0261 6.50945 21.7893 6.90492 22.509L4.52492 25.8387C4.4315 25.9695 4.38745 26.1292 4.40058 26.2894C4.4137 26.4496 4.48317 26.6 4.59664 26.7139L7.24094 29.3595C7.35383 29.4724 7.50285 29.542 7.6619 29.5561C7.82095 29.5702 7.97989 29.5279 8.11086 29.4365L11.4803 27.0778C12.1972 27.4689 12.9574 27.7834 13.7554 28.0168L14.4288 32.0715C14.4552 32.2304 14.5371 32.3746 14.6599 32.4787C14.7827 32.5828 14.9385 32.6399 15.0995 32.64H18.8395C18.9995 32.6402 19.1545 32.584 19.2771 32.4813C19.3998 32.3785 19.4823 32.2358 19.5102 32.0782L20.2313 28.0075C21.026 27.7705 21.7827 27.4514 22.4958 27.0579L25.8878 29.4379C26.0188 29.5297 26.1779 29.5725 26.3372 29.5586C26.4966 29.5448 26.6459 29.4752 26.7591 29.3622L29.4034 26.7152C29.5173 26.601 29.587 26.45 29.5999 26.2892C29.6128 26.1284 29.5681 25.9682 29.4738 25.8373L27.0552 22.4798C27.4419 21.7702 27.7535 21.018 27.9849 20.2287L32.0769 19.5115C32.2345 19.4836 32.3772 19.4011 32.4799 19.2785C32.5827 19.1558 32.6389 19.0008 32.6387 18.8408V15.1008C32.6386 14.9396 32.5813 14.7837 32.4769 14.6608C32.3725 14.538 32.228 14.4562 32.0689 14.4301L27.9836 13.762C27.7506 12.9736 27.4382 12.2228 27.0513 11.5135L29.4366 8.11483C29.5284 7.98389 29.5712 7.82476 29.5573 7.66542C29.5435 7.50608 29.4739 7.35672 29.3609 7.24358L26.7152 4.59928C26.601 4.48533 26.45 4.41568 26.2892 4.40278C26.1284 4.38989 25.9682 4.43459 25.8373 4.52889L22.4891 6.93678C21.7758 6.54486 21.0186 6.22742 20.222 5.99249L19.5102 1.92311C19.4826 1.76528 19.4002 1.62224 19.2775 1.51922C19.1548 1.4162 18.9997 1.35981 18.8395 1.35999H15.0995ZM15.6785 2.71999H18.2684L18.9457 6.58616C18.9682 6.71583 19.0279 6.83617 19.1175 6.93259C19.2071 7.02901 19.3227 7.09736 19.4504 7.12936C20.4449 7.37719 21.3789 7.77004 22.2315 8.28616C22.3455 8.35522 22.4772 8.38927 22.6104 8.38408C22.7436 8.37888 22.8723 8.33467 22.9805 8.25694L26.1627 5.96991L27.9942 7.80139L25.7284 11.0301C25.6528 11.1378 25.61 11.2651 25.6053 11.3967C25.6005 11.5282 25.6341 11.6583 25.7019 11.7712C26.2129 12.6218 26.6005 13.5499 26.848 14.539C26.8803 14.6678 26.9495 14.7843 27.0472 14.8743C27.145 14.9642 27.2668 15.0235 27.3979 15.045L31.2787 15.6798V18.2697L27.3899 18.9523C27.2602 18.9753 27.1399 19.0355 27.0437 19.1255C26.9475 19.2156 26.8795 19.3317 26.848 19.4597C26.6033 20.4475 26.2155 21.3756 25.7045 22.2262C25.6359 22.3401 25.6023 22.4717 25.6077 22.6046C25.6131 22.7375 25.6574 22.8659 25.7351 22.9739L28.0327 26.1627L26.2013 27.9955L22.9779 25.7337C22.8696 25.6579 22.7417 25.6153 22.6096 25.611C22.4775 25.6068 22.347 25.6411 22.2341 25.7098C21.3858 26.2259 20.4508 26.6206 19.4597 26.8719C19.3326 26.904 19.2175 26.972 19.1282 27.0679C19.0389 27.1638 18.9792 27.2835 18.9563 27.4125L18.2697 31.28H15.6759L15.0357 27.4297C15.0139 27.2988 14.9543 27.177 14.8641 27.0796C14.774 26.9821 14.6572 26.9132 14.5284 26.8812C13.5333 26.636 12.595 26.2437 11.7366 25.7284C11.6239 25.6609 11.4941 25.6275 11.3628 25.6322C11.2316 25.6369 11.1044 25.6796 10.9969 25.755L7.79875 27.9955L5.96594 26.1601L8.22641 23.0005C8.30366 22.8922 8.34748 22.7637 8.35243 22.6308C8.35739 22.4979 8.32327 22.3664 8.2543 22.2527C7.7334 21.392 7.33946 20.4538 7.09086 19.4544C7.05905 19.3271 6.9911 19.2117 6.89518 19.1221C6.79927 19.0326 6.6795 18.9727 6.55031 18.9497L2.72133 18.2697V15.6758L6.54766 15.0397C6.67846 15.018 6.80007 14.9585 6.89752 14.8686C6.99498 14.7787 7.06403 14.6623 7.09617 14.5337C7.34691 13.5307 7.74066 12.5927 8.25961 11.734C8.32804 11.6212 8.36222 11.491 8.35797 11.3592C8.35373 11.2274 8.31125 11.0997 8.2357 10.9915L6.0018 7.79874L7.83594 5.96592L11.0062 8.2317C11.114 8.30861 11.242 8.35234 11.3744 8.35753C11.5067 8.36272 11.6377 8.32914 11.7513 8.26092C12.6051 7.74811 13.5455 7.359 14.5416 7.11475C14.6711 7.08287 14.7884 7.01363 14.8788 6.91563C14.9693 6.81763 15.0289 6.6952 15.0503 6.56358L15.6785 2.71999ZM17 11.56C14.0036 11.56 11.56 14.0036 11.56 17C11.56 19.9964 14.0036 22.44 17 22.44C19.9964 22.44 22.44 19.9964 22.44 17C22.44 14.0036 19.9964 11.56 17 11.56ZM17 12.92C19.2614 12.92 21.08 14.7386 21.08 17C21.08 19.2614 19.2614 21.08 17 21.08C14.7386 21.08 12.92 19.2614 12.92 17C12.92 14.7386 14.7386 12.92 17 12.92Z" fill="#263238" stroke="#263238"/>
</g>
<defs>
<clipPath id="clip0_1636_478">
<rect width="34" height="34" fill="white"/>
</clipPath>
</defs>
</svg>
